<svg width="2114" height="382" viewBox="0 0 2114 382" fill="none" xmlns="http://www.w3.org/2000/svg">
<rect width="2114" height="382" fill="#E5E5E5"/>
<rect width="2114" height="382" fill="white"/>
<path fill-rule="evenodd" clip-rule="evenodd" d="M599.497 103.9C597.44 73.0494 575.363 55.4366 549.135 45.9642C522.96 36.5111 492.292 34.9993 471.992 36.4965C465.909 36.1201 459.991 36.6908 454.2 38.4116C429.55 42.2651 399.915 51.6886 374.887 69.6053C343.811 91.8511 319.876 127.177 321.427 180.945C321.439 181.347 321.118 181.688 320.716 181.689V181.689C320.321 181.691 320 181.371 320 180.976V46.2199C320 45.5462 319.454 45 318.78 45V45C318.596 45 318.414 44.9582 318.248 44.8778V44.8778C317.642 44.5839 316.925 44.81 316.631 45.4163C305.855 67.6729 278.869 124.321 256.349 178.255C255.418 180.486 253.244 181.943 250.826 181.952L104.999 182.5C104.996 182.5 104.994 182.502 104.994 182.504V182.504C104.994 182.507 104.993 182.509 104.99 182.509C92.4093 182.782 74.0362 187.213 58.7936 198.951C43.2823 210.897 31.0984 230.352 31.5101 260.39C31.922 290.435 44.5046 307.831 60.4174 317.337C76.1382 326.729 94.9208 328.315 107.933 327.182C108.023 327.174 108.101 327.242 108.108 327.332V327.332C108.116 327.422 108.188 327.49 108.278 327.482C137.281 325.028 205.619 293.538 255.134 188.437C256.129 186.324 258.26 184.924 260.595 184.915L310.977 184.726C314.3 184.713 317 187.403 317 190.726V325.15C317 325.564 317.336 325.9 317.75 325.9V325.9C318.164 325.9 318.5 326.235 318.5 326.65V326.7C318.5 327.142 318.858 327.5 319.3 327.5H478.589C514.682 331.412 554.826 330.724 596.617 327.608C597.452 327.546 598.088 326.834 598.057 325.998V325.998C598.025 325.162 597.338 324.5 596.501 324.5H478.747C452.983 321.697 429.371 316.536 408.773 308.234C384.014 298.255 363.662 283.756 349.147 263.395V263.395C348.262 262.154 348.05 260.563 348.536 259.119C354.762 240.628 362.14 217.504 370.826 188.775C371.592 186.24 373.927 184.5 376.575 184.5H537H537.045L537.091 184.497C548.372 183.814 564.973 178.96 578.271 166.599C591.63 154.182 601.524 134.312 599.497 103.9ZM105.519 185.5C105.52 185.5 105.52 185.499 105.52 185.499V185.499C105.52 185.498 105.52 185.498 105.521 185.498L244.019 184.977C248.412 184.961 251.319 189.532 249.378 193.474C200.501 292.775 135.163 322.182 108.052 324.49C107.961 324.498 107.889 324.431 107.881 324.341V324.341C107.873 324.25 107.794 324.183 107.704 324.191C95.0706 325.295 76.9673 323.73 61.956 314.762C46.9911 305.822 34.9083 289.417 34.5099 260.349C34.1113 231.272 45.8493 212.707 60.6241 201.328C75.4681 189.897 93.4633 185.661 105.519 185.5ZM320 318.457C320 319.698 321.503 320.125 322.092 319.033V319.033C324.455 314.643 327.653 307.559 331.828 296.855C335.101 288.463 338.966 277.869 343.494 264.641C344.096 262.883 343.836 260.95 342.847 259.376C330.584 239.856 323.166 215.522 321.612 185.459C321.59 185.028 321.234 184.687 320.803 184.689V184.689C320.359 184.69 320 185.051 320 185.495V318.457ZM330.853 184.651C327.433 184.664 324.707 187.532 324.974 190.941C326.697 212.891 331.706 231.518 339.51 247.272C341.75 251.795 348.062 251.092 349.636 246.297C354.62 231.111 360.264 213.236 366.632 192.269C367.804 188.412 364.905 184.523 360.874 184.538L330.853 184.651ZM365.445 181.521C368.083 181.511 370.405 179.771 371.178 177.249C387.785 123.028 403.433 87.5908 419.442 65.836V65.836C422.985 61.0208 417.288 50.8734 411.735 53.088C399.68 57.8959 387.69 64.1291 376.633 72.0447C347.254 93.0762 324.414 125.997 324.356 175.844C324.352 179.088 327.031 181.665 330.275 181.653L365.445 181.521ZM261.557 173.599C259.89 177.55 262.809 181.907 267.098 181.891L311.023 181.725C314.327 181.713 317 179.03 317 175.726V77.8411C317 71.4613 308.418 69.5141 305.698 75.2853C293.344 101.505 276.634 137.859 261.557 173.599ZM446.295 44.907C449.122 43.3948 451.976 42.2163 454.867 41.3437C460.968 40.3966 466.757 39.7962 472.084 39.4976L472.098 39.4969L472.111 39.4959C492.145 38.0058 522.418 39.5049 548.115 48.7858C573.804 58.0634 594.56 74.9506 596.503 104.1C598.476 133.688 588.87 152.651 576.229 164.401C563.545 176.191 547.672 180.84 536.954 181.5H381.104C377.079 181.5 374.199 177.601 375.395 173.757C391.473 122.095 406.584 88.3704 421.858 67.614C429.95 56.6181 438.045 49.3204 446.295 44.907ZM334.622 297.945C337.949 289.416 341.879 278.639 346.484 265.17C346.517 265.073 346.645 265.053 346.704 265.136V265.136C361.618 286.057 382.48 300.87 407.651 311.016V311.016C412.601 313.011 411.081 324.5 405.744 324.5H327.025C325.035 324.5 323.79 322.207 324.733 320.455V320.455C327.182 315.907 330.431 308.691 334.622 297.945ZM851.4 213C848.086 213 845.4 210.314 845.4 207V149.1C845.4 145.786 848.086 143.1 851.4 143.1H924.6C927.914 143.1 930.6 140.414 930.6 137.1V126.6C930.6 123.286 927.914 120.6 924.6 120.6H824.1C820.786 120.6 818.1 123.286 818.1 126.6V324C818.1 327.314 820.786 330 824.1 330H924.6C927.914 330 930.6 327.314 930.6 324V313.5C930.6 310.186 927.914 307.5 924.6 307.5H851.4C848.086 307.5 845.4 304.814 845.4 301.5V241.5C845.4 238.186 848.086 235.5 851.4 235.5H915.6C918.914 235.5 921.6 232.814 921.6 229.5V219C921.6 215.686 918.914 213 915.6 213H851.4ZM1203.81 170.7C1193.81 165.3 1182.41 162.6 1169.61 162.6C1156.61 162.6 1144.81 165.8 1134.21 172.2C1127.84 176.046 1122.55 180.831 1118.35 186.555C1115.19 190.861 1107.42 190.963 1104.24 186.676C1099.75 180.648 1094.24 175.723 1087.71 171.9C1077.11 165.7 1064.91 162.6 1051.11 162.6C1040.11 162.6 1030.01 164.9 1020.81 169.5C1017.4 171.243 1014.25 173.273 1011.35 175.59C1007.2 178.914 999.209 176.216 999.209 170.898V170.898C999.209 167.972 996.836 165.6 993.91 165.6H977.909C974.595 165.6 971.909 168.286 971.909 171.6V324C971.909 327.314 974.595 330 977.909 330H993.209C996.522 330 999.209 327.314 999.209 324V239.4C999.209 222.2 1003.41 209.1 1011.81 200.1C1020.21 190.9 1031.51 186.3 1045.71 186.3C1059.51 186.3 1070.41 190.7 1078.41 199.5C1086.61 208.1 1090.71 220.6 1090.71 237V324C1090.71 327.314 1093.39 330 1096.71 330H1111.71C1115.02 330 1117.71 327.314 1117.71 324V239.4C1117.71 222.2 1121.91 209.1 1130.31 200.1C1138.71 190.9 1150.01 186.3 1164.21 186.3C1178.01 186.3 1188.91 190.7 1196.91 199.5C1205.11 208.1 1209.21 220.6 1209.21 237V324C1209.21 327.314 1211.89 330 1215.21 330H1230.21C1233.52 330 1236.21 327.314 1236.21 324V233.1C1236.21 217.9 1233.31 205 1227.51 194.4C1221.71 183.8 1213.81 175.9 1203.81 170.7ZM1280.99 203.1C1274.19 215.7 1270.79 230.4 1270.79 247.2C1270.79 263.8 1274.19 278.6 1280.99 291.6C1287.79 304.6 1297.09 314.7 1308.89 321.9C1320.69 329.1 1333.89 332.7 1348.49 332.7C1362.69 332.7 1375.09 329.6 1385.69 323.4C1389.15 321.348 1392.34 319.132 1395.24 316.752C1400.02 312.84 1409.99 316.131 1409.99 322.305V324C1409.99 327.314 1412.68 330 1415.99 330H1431.59C1434.9 330 1437.59 327.314 1437.59 324V171.6C1437.59 168.286 1434.9 165.6 1431.59 165.6H1415.99C1412.68 165.6 1409.99 168.286 1409.99 171.6V172.359C1409.99 178.556 1399.8 181.937 1394.95 178.088C1392.29 175.987 1389.41 174.024 1386.29 172.2C1375.69 166 1363.19 162.9 1348.79 162.9C1334.19 162.9 1320.89 166.4 1308.89 173.4C1297.09 180.4 1287.79 190.3 1280.99 203.1ZM1402.49 215.1C1407.49 224.3 1409.99 235.1 1409.99 247.5C1409.99 259.9 1407.49 270.8 1402.49 280.2C1397.49 289.4 1390.69 296.5 1382.09 301.5C1373.69 306.3 1364.39 308.7 1354.19 308.7C1343.99 308.7 1334.69 306.3 1326.29 301.5C1317.89 296.5 1311.19 289.4 1306.19 280.2C1301.19 270.8 1298.69 259.8 1298.69 247.2C1298.69 234.8 1301.19 224 1306.19 214.8C1311.19 205.6 1317.89 198.6 1326.29 193.8C1334.69 189 1343.99 186.6 1354.19 186.6C1364.39 186.6 1373.69 189.1 1382.09 194.1C1390.69 198.9 1397.49 205.9 1402.49 215.1ZM1612.43 180.9C1600.03 168.7 1583.82 162.6 1563.82 162.6C1552.62 162.6 1542.32 164.9 1532.93 169.5C1529.38 171.274 1526.11 173.332 1523.13 175.672C1518.95 178.944 1511.03 176.214 1511.03 170.912V170.912C1511.03 167.978 1508.65 165.6 1505.71 165.6H1489.72C1486.41 165.6 1483.72 168.286 1483.72 171.6V324C1483.72 327.314 1486.41 330 1489.72 330H1505.03C1508.34 330 1511.03 327.314 1511.03 324V239.1C1511.03 221.9 1515.22 208.8 1523.62 199.8C1532.22 190.8 1543.72 186.3 1558.12 186.3C1572.32 186.3 1583.53 190.7 1591.72 199.5C1599.93 208.1 1604.03 220.6 1604.03 237V324C1604.03 327.314 1606.71 330 1610.03 330H1625.03C1628.34 330 1631.03 327.314 1631.03 324V233.1C1631.03 210.3 1624.82 192.9 1612.43 180.9ZM1815.42 330C1818.73 330 1821.42 327.314 1821.42 324V171.6C1821.42 168.286 1818.73 165.6 1815.42 165.6H1800.12C1796.81 165.6 1794.12 168.286 1794.12 171.6V255.9C1794.12 273.1 1789.92 286.2 1781.52 295.2C1773.12 304.2 1761.62 308.7 1747.02 308.7C1732.82 308.7 1721.62 304.4 1713.42 295.8C1705.22 287 1701.12 274.5 1701.12 258.3V171.6C1701.12 168.286 1698.43 165.6 1695.12 165.6H1680.12C1676.81 165.6 1674.12 168.286 1674.12 171.6V261.9C1674.12 277.1 1677.02 290 1682.82 300.6C1688.82 311.2 1696.92 319.2 1707.12 324.6C1717.32 329.8 1728.82 332.4 1741.62 332.4C1752.82 332.4 1763.02 330.1 1772.22 325.5C1775.58 323.783 1778.68 321.835 1781.5 319.657C1785.79 316.349 1794.12 319.199 1794.12 324.618V324.618C1794.12 327.59 1796.53 330 1799.5 330H1815.42ZM2011.2 258C2014.28 258 2016.87 255.676 2017.09 252.61C2017.37 248.766 2017.51 245.063 2017.51 241.5C2017.51 226.5 2014.21 213.1 2007.61 201.3C2001.21 189.3 1992.01 179.9 1980.01 173.1C1968.01 166.3 1954.21 162.9 1938.61 162.9C1922.61 162.9 1908.41 166.4 1896.01 173.4C1883.81 180.2 1874.31 190 1867.51 202.8C1860.71 215.6 1857.31 230.5 1857.31 247.5C1857.31 264.5 1860.81 279.5 1867.81 292.5C1874.81 305.3 1884.41 315.2 1896.61 322.2C1909.01 329.2 1923.01 332.7 1938.61 332.7C1958.21 332.7 1974.61 327.8 1987.81 318C1998.86 309.629 2006.83 299.226 2011.71 286.79C2013.16 283.095 2010.28 279.3 2006.31 279.3H1989.08C1986.53 279.3 1984.29 280.934 1983.24 283.262C1979.91 290.649 1974.83 296.728 1968.01 301.5C1960.21 306.9 1950.41 309.6 1938.61 309.6C1924.21 309.6 1911.91 305.1 1901.71 296.1C1893.06 288.138 1887.78 277.554 1885.86 264.349C1885.37 260.925 1888.14 258 1891.6 258H2011.2ZM1982.41 209.1C1986.1 215.037 1988.31 221.939 1989.04 229.807C1989.35 233.107 1986.63 235.8 1983.31 235.8H1892.08C1888.55 235.8 1885.76 232.765 1886.37 229.294C1888.58 216.768 1893.79 206.737 1902.01 199.2C1911.81 190.4 1923.61 186 1937.41 186C1947.01 186 1955.71 188 1963.51 192C1971.51 195.8 1977.81 201.5 1982.41 209.1ZM2074.85 330C2078.16 330 2080.85 327.314 2080.85 324V114C2080.85 110.686 2078.16 108 2074.85 108H2059.55C2056.24 108 2053.55 110.686 2053.55 114V324C2053.55 327.314 2056.24 330 2059.55 330H2074.85Z" fill="black"/>
<path d="M549.135 45.9642L552.531 36.5588L552.531 36.5588L549.135 45.9642ZM599.497 103.9L609.475 103.235L609.475 103.235L599.497 103.9ZM471.992 36.4965L471.374 46.4774L472.051 46.5193L472.727 46.4694L471.992 36.4965ZM454.2 38.4116L455.745 48.2916L456.406 48.1881L457.049 47.9973L454.2 38.4116ZM374.887 69.6053L380.708 77.7366L380.708 77.7366L374.887 69.6053ZM58.7936 198.951L64.8951 206.874L58.7936 198.951ZM31.5101 260.39L41.5092 260.253L31.5101 260.39ZM60.4174 317.337L65.5461 308.753L65.5461 308.753L60.4174 317.337ZM478.589 327.5L479.666 317.558L479.129 317.5H478.589V327.5ZM478.747 324.5L477.665 334.441L478.205 334.5H478.747V324.5ZM408.773 308.234L405.034 317.509L405.034 317.509L408.773 308.234ZM537.045 184.5V194.5H537.348L537.65 194.482L537.045 184.5ZM537.091 184.497L537.696 194.479L537.696 194.479L537.091 184.497ZM578.271 166.599L585.079 173.923L585.079 173.923L578.271 166.599ZM61.956 314.762L56.8274 323.347L56.8274 323.347L61.956 314.762ZM34.5099 260.349L24.5108 260.486L34.5099 260.349ZM60.6241 201.328L54.5225 193.406L54.5225 193.406L60.6241 201.328ZM331.828 296.855L322.511 293.221L322.511 293.221L331.828 296.855ZM376.633 72.0447L370.812 63.9134L370.812 63.9134L376.633 72.0447ZM454.867 41.3437L453.333 31.462L452.644 31.569L451.976 31.7705L454.867 41.3437ZM446.295 44.907L451.012 53.7247L451.012 53.7247L446.295 44.907ZM472.084 39.4976L471.525 29.5133L471.524 29.5133L472.084 39.4976ZM472.098 39.4969L472.657 49.4812L472.749 49.4761L472.84 49.4693L472.098 39.4969ZM472.111 39.4959L471.37 29.5234L471.369 29.5235L472.111 39.4959ZM548.115 48.7858L551.512 39.3804L551.512 39.3804L548.115 48.7858ZM596.503 104.1L586.525 104.765L586.525 104.765L596.503 104.1ZM576.229 164.401L569.421 157.077L569.421 157.077L576.229 164.401ZM536.954 181.5V191.5H537.262L537.569 191.481L536.954 181.5ZM421.858 67.614L413.804 61.6872L413.804 61.6872L421.858 67.614ZM334.622 297.945L325.306 294.311L325.306 294.311L334.622 297.945ZM1203.81 170.7L1199.06 179.499L1199.13 179.536L1199.2 179.572L1203.81 170.7ZM1134.21 172.2L1139.38 180.761L1139.38 180.761L1134.21 172.2ZM1020.81 169.5L1016.34 160.556L1016.3 160.575L1016.26 160.596L1020.81 169.5ZM1011.81 200.1L1019.12 206.923L1019.16 206.883L1019.19 206.843L1011.81 200.1ZM1078.41 199.5L1071.01 206.227L1071.09 206.315L1071.17 206.401L1078.41 199.5ZM1130.31 200.1L1137.62 206.923L1137.66 206.883L1137.69 206.843L1130.31 200.1ZM1196.91 199.5L1189.51 206.227L1189.59 206.315L1189.67 206.401L1196.91 199.5ZM1227.51 194.4L1218.74 199.2L1218.74 199.2L1227.51 194.4ZM1280.99 203.1L1289.79 207.849L1289.81 207.82L1289.82 207.792L1280.99 203.1ZM1280.99 291.6L1272.13 296.235L1272.13 296.235L1280.99 291.6ZM1308.89 321.9L1303.68 330.436L1303.68 330.436L1308.89 321.9ZM1385.69 323.4L1390.74 332.032L1390.76 332.017L1390.79 332.003L1385.69 323.4ZM1386.29 172.2L1381.24 180.832L1381.24 180.832L1386.29 172.2ZM1308.89 173.4L1303.85 164.762L1303.82 164.781L1303.79 164.799L1308.89 173.4ZM1402.49 215.1L1411.28 210.325L1411.28 210.325L1402.49 215.1ZM1402.49 280.2L1411.28 284.975L1411.3 284.936L1411.32 284.896L1402.49 280.2ZM1382.09 301.5L1387.05 310.182L1387.08 310.164L1387.12 310.145L1382.09 301.5ZM1326.29 301.5L1321.18 310.093L1321.25 310.138L1321.33 310.182L1326.29 301.5ZM1306.19 280.2L1297.36 284.896L1297.38 284.936L1297.4 284.975L1306.19 280.2ZM1306.19 214.8L1314.98 219.575L1314.98 219.575L1306.19 214.8ZM1326.29 193.8L1321.33 185.118L1321.33 185.118L1326.29 193.8ZM1382.09 194.1L1376.98 202.693L1377.1 202.764L1377.22 202.832L1382.09 194.1ZM1612.43 180.9L1605.41 188.028L1605.44 188.057L1605.47 188.086L1612.43 180.9ZM1532.93 169.5L1528.53 160.518L1528.49 160.537L1528.45 160.556L1532.93 169.5ZM1523.62 199.8L1516.4 192.891L1516.35 192.934L1516.31 192.977L1523.62 199.8ZM1591.72 199.5L1584.41 206.317L1584.45 206.359L1584.49 206.401L1591.72 199.5ZM1713.42 295.8L1706.1 302.617L1706.14 302.659L1706.18 302.701L1713.42 295.8ZM1682.82 300.6L1674.05 305.4L1674.08 305.463L1674.12 305.526L1682.82 300.6ZM1707.12 324.6L1702.44 333.438L1702.51 333.474L1702.58 333.509L1707.12 324.6ZM1772.22 325.5L1776.69 334.444L1776.73 334.425L1776.77 334.406L1772.22 325.5ZM2007.61 201.3L1998.79 206.006L1998.84 206.094L1998.89 206.182L2007.61 201.3ZM1980.01 173.1L1975.08 181.8L1975.08 181.8L1980.01 173.1ZM1896.01 173.4L1900.88 182.135L1900.91 182.122L1900.93 182.108L1896.01 173.4ZM1867.51 202.8L1858.68 198.108L1858.68 198.108L1867.51 202.8ZM1867.81 292.5L1859.01 297.241L1859.02 297.27L1859.04 297.298L1867.81 292.5ZM1896.61 322.2L1891.64 330.874L1891.67 330.891L1891.7 330.908L1896.61 322.2ZM1987.81 318L1993.78 326.029L1993.81 326L1993.85 325.971L1987.81 318ZM1968.01 301.5L1973.71 309.722L1973.73 309.707L1973.75 309.692L1968.01 301.5ZM1901.71 296.1L1894.94 303.459L1895.02 303.53L1895.1 303.598L1901.71 296.1ZM1982.41 209.1L1973.86 214.278L1973.89 214.329L1973.92 214.379L1982.41 209.1ZM1902.01 199.2L1895.33 191.759L1895.29 191.794L1895.26 191.828L1902.01 199.2ZM1963.51 192L1958.95 200.898L1959.09 200.968L1959.22 201.033L1963.51 192ZM1983.24 283.262L1974.12 279.151L1983.24 283.262ZM1394.95 178.088L1401.16 170.25L1394.95 178.088ZM1395.24 316.752L1401.58 324.489L1395.24 316.752ZM1886.37 229.294L1896.22 231.029L1886.37 229.294ZM1989.04 229.807L1979.09 230.731L1989.04 229.807ZM1885.86 264.349L1895.76 262.915L1885.86 264.349ZM1011.35 175.59L1005.1 167.785L1011.35 175.59ZM2011.71 286.79L2002.41 283.135L2011.71 286.79ZM1118.35 186.555L1126.41 192.473L1118.35 186.555ZM1104.24 186.676L1096.21 192.643L1104.24 186.676ZM1781.5 319.657L1775.4 311.737L1781.5 319.657ZM1523.13 175.672L1516.96 167.803L1523.13 175.672ZM366.632 192.269L357.064 189.363L366.632 192.269ZM360.874 184.538L360.836 174.538L360.874 184.538ZM324.974 190.941L334.944 190.159L324.974 190.941ZM330.853 184.651L330.89 194.651L330.853 184.651ZM339.51 247.272L330.549 251.711L339.51 247.272ZM321.612 185.459L331.599 184.943L321.612 185.459ZM343.494 264.641L334.033 261.403L343.494 264.641ZM342.847 259.376L334.38 264.696L342.847 259.376ZM107.704 324.191L106.833 314.229L107.704 324.191ZM108.052 324.49L108.9 334.454L108.052 324.49ZM244.019 184.977L244.056 194.977L244.019 184.977ZM249.378 193.474L258.35 197.89L249.378 193.474ZM105.519 185.5L105.386 175.501L105.519 185.5ZM346.484 265.17L355.946 268.404L346.484 265.17ZM596.617 327.608L597.361 337.581L597.361 337.581L596.617 327.608ZM375.395 173.757L365.847 170.786L375.395 173.757ZM310.977 184.726L310.94 174.726L310.977 184.726ZM2017.09 252.61L2007.12 251.879L2017.09 252.61ZM105.521 185.498L105.558 195.498L105.521 185.498ZM305.698 75.2853L314.744 79.5478L305.698 75.2853ZM104.99 182.509L104.773 172.511L104.99 182.509ZM267.098 181.891L267.06 171.891L267.098 181.891ZM104.999 182.5L104.961 172.5L104.999 182.5ZM311.023 181.725L310.985 171.726L311.023 181.725ZM256.349 178.255L265.577 182.108L265.577 182.108L256.349 178.255ZM250.826 181.952L250.788 171.952L250.826 181.952ZM324.356 175.844L314.356 175.833L314.356 175.833L324.356 175.844ZM330.275 181.653L330.238 171.653L330.275 181.653ZM316.631 45.4163L325.632 49.7743L316.631 45.4163ZM255.134 188.437L264.18 192.699L255.134 188.437ZM260.595 184.915L260.632 194.915L260.595 184.915ZM370.826 188.775L361.254 185.881L361.254 185.881L370.826 188.775ZM108.278 327.482L107.435 317.518L108.278 327.482ZM348.536 259.119L339.059 255.927L348.536 259.119ZM365.445 181.521L365.407 171.521L365.445 181.521ZM107.933 327.182L107.066 317.22L107.066 317.22L107.933 327.182ZM321.427 180.945L311.432 181.234L321.427 180.945ZM545.738 55.3696C570.172 64.1943 587.841 79.3908 589.519 104.565L609.475 103.235C607.039 66.7079 580.553 46.679 552.531 36.5588L545.738 55.3696ZM472.727 46.4694C492.141 45.0377 521.297 46.5428 545.738 55.3696L552.531 36.5588C524.623 26.4795 492.444 24.9609 471.256 26.5236L472.727 46.4694ZM457.049 47.9973C461.601 46.6444 466.336 46.1656 471.374 46.4774L472.609 26.5156C465.483 26.0746 458.38 26.7372 451.351 28.8259L457.049 47.9973ZM380.708 77.7366C404.14 60.962 432.184 51.9747 455.745 48.2916L452.656 28.5316C426.915 32.5555 395.689 42.4152 369.066 61.474L380.708 77.7366ZM331.423 180.657C329.979 130.587 352.021 98.2723 380.708 77.7366L369.066 61.474C335.602 85.4299 309.774 123.767 311.432 181.234L331.423 180.657ZM310 46.2199V180.976H330V46.2199H310ZM265.577 182.108C287.989 128.432 314.88 71.9802 325.632 49.7743L307.631 41.0584C296.83 63.3656 269.749 120.21 247.121 174.402L265.577 182.108ZM105.036 192.5L250.863 191.952L250.788 171.952L104.961 172.5L105.036 192.5ZM64.8951 206.874C78.1668 196.654 94.3748 192.742 105.208 192.506L104.773 172.511C90.4437 172.823 69.9056 177.772 52.6921 191.029L64.8951 206.874ZM41.5092 260.253C41.1414 233.418 51.8388 216.929 64.8951 206.874L52.6921 191.029C34.7258 204.865 21.0555 227.287 21.5111 260.527L41.5092 260.253ZM65.5461 308.753C52.7934 301.134 41.8764 287.043 41.5092 260.253L21.5111 260.527C21.9675 293.826 36.2158 314.527 55.2888 325.922L65.5461 308.753ZM107.066 317.22C95.3127 318.243 78.8564 316.704 65.5461 308.753L55.2888 325.922C73.4199 336.754 94.5288 338.387 108.8 337.144L107.066 317.22ZM246.087 184.175C197.66 286.968 131.974 315.442 107.435 317.518L109.121 337.446C142.589 334.615 213.577 300.109 264.18 192.699L246.087 184.175ZM310.94 174.726L260.557 174.915L260.632 194.915L311.015 194.726L310.94 174.726ZM327 325.15V190.726H307V325.15H327ZM328.5 326.7V326.65H308.5V326.7H328.5ZM478.589 317.5H319.3V337.5H478.589V317.5ZM595.874 317.636C554.386 320.729 514.914 321.379 479.666 317.558L477.511 337.442C514.451 341.446 555.266 340.719 597.361 337.581L595.874 317.636ZM478.747 334.5H596.501V314.5H478.747V334.5ZM405.034 317.509C426.722 326.25 451.287 331.572 477.665 334.441L479.828 314.559C454.68 311.823 432.019 306.822 412.511 298.959L405.034 317.509ZM341.004 269.2C356.848 291.425 378.899 306.974 405.034 317.509L412.511 298.959C389.13 289.535 370.475 276.086 357.29 257.59L341.004 269.2ZM361.254 185.881C352.591 214.535 345.245 237.558 339.059 255.927L358.014 262.31C364.28 243.699 371.69 220.472 380.398 191.668L361.254 185.881ZM537 174.5H376.575V194.5H537V174.5ZM537.045 174.5H537V194.5H537.045V174.5ZM536.486 174.516L536.44 174.518L537.65 194.482L537.696 194.479L536.486 174.516ZM571.463 159.274C560.156 169.784 545.89 173.946 536.486 174.516L537.696 194.479C550.855 193.681 569.789 188.135 585.079 173.923L571.463 159.274ZM589.519 104.565C591.363 132.231 582.433 149.078 571.463 159.274L585.079 173.923C600.826 159.287 611.685 136.393 609.475 103.235L589.519 104.565ZM243.981 174.977L105.483 175.498L105.558 195.498L244.056 194.977L243.981 174.977ZM108.9 334.454C140.383 331.773 208.359 299.455 258.35 197.89L240.406 189.058C192.643 286.095 129.942 312.59 107.203 314.527L108.9 334.454ZM56.8274 323.347C74.2504 333.755 94.6816 335.368 108.575 334.153L106.833 314.229C95.4597 315.223 79.6842 313.704 67.0846 306.177L56.8274 323.347ZM24.5108 260.486C24.9539 292.81 38.7033 312.519 56.8274 323.347L67.0847 306.177C55.279 299.124 44.8627 286.025 44.5089 260.211L24.5108 260.486ZM54.5225 193.406C37.2927 206.675 24.0683 228.207 24.5108 260.486L44.5089 260.211C44.1543 234.337 54.4059 218.739 66.7256 209.251L54.5225 193.406ZM105.386 175.501C91.5475 175.685 71.3571 180.441 54.5225 193.406L66.7256 209.251C79.5791 199.352 95.3792 195.636 105.653 195.499L105.386 175.501ZM322.511 293.221C318.391 303.783 315.366 310.431 313.287 314.292L330.896 323.774C333.545 318.856 336.914 311.334 341.144 300.489L322.511 293.221ZM334.033 261.403C329.538 274.535 325.721 284.992 322.511 293.221L341.144 300.489C344.481 291.934 348.395 281.203 352.955 267.88L334.033 261.403ZM311.626 185.975C313.25 217.419 321.051 243.479 334.38 264.696L351.315 254.057C340.118 236.233 333.081 213.624 331.599 184.943L311.626 185.975ZM330 318.457V185.495H310V318.457H330ZM348.471 242.833C341.315 228.387 336.582 211.034 334.944 190.159L315.005 191.723C316.812 214.748 322.097 234.649 330.549 251.711L348.471 242.833ZM357.064 189.363C350.713 210.272 345.092 228.075 340.135 243.179L359.137 249.415C364.149 234.147 369.815 216.2 376.2 195.175L357.064 189.363ZM330.89 194.651L360.912 194.538L360.836 174.538L330.815 174.651L330.89 194.651ZM411.387 59.9091C394.34 83.0757 378.299 119.854 361.616 174.32L380.739 180.177C397.271 126.203 412.527 92.106 427.496 71.7628L411.387 59.9091ZM382.454 80.176C392.759 72.7993 404.014 66.933 415.439 62.3766L408.03 43.7995C395.345 48.8588 382.622 55.4588 370.812 63.9134L382.454 80.176ZM334.356 175.856C334.41 129.625 355.356 99.5744 382.454 80.1759L370.812 63.9134C339.152 86.578 314.419 122.369 314.356 175.833L334.356 175.856ZM365.407 171.521L330.238 171.653L330.313 191.653L365.483 191.521L365.407 171.521ZM310.985 171.726L267.06 171.891L267.136 191.891L311.06 191.725L310.985 171.726ZM307 77.8411V175.726H327V77.8411H307ZM270.771 177.486C285.773 141.923 302.419 105.706 314.744 79.5478L296.652 71.0228C284.268 97.3044 267.495 133.795 252.343 169.712L270.771 177.486ZM451.976 31.7705C448.439 32.8385 444.974 34.273 441.578 36.0893L451.012 53.7247C453.27 52.5166 455.514 51.5941 457.757 50.9169L451.976 31.7705ZM471.524 29.5133C465.859 29.8309 459.744 30.4667 453.333 31.462L456.401 51.2253C462.191 50.3264 467.656 49.7616 472.644 49.482L471.524 29.5133ZM471.538 29.5125L471.525 29.5133L472.643 49.482L472.657 49.4812L471.538 29.5125ZM471.369 29.5235L471.355 29.5245L472.84 49.4693L472.854 49.4683L471.369 29.5235ZM551.512 39.3804C524.078 29.4724 492.292 27.9672 471.37 29.5234L472.853 49.4683C491.997 48.0444 520.757 49.5373 544.719 58.1912L551.512 39.3804ZM606.481 103.435C604.16 68.6172 579.005 49.3097 551.512 39.3804L544.719 58.1912C568.603 66.817 584.96 81.2841 586.525 104.765L606.481 103.435ZM583.037 171.726C598.067 157.756 608.637 135.769 606.481 103.435L586.525 104.765C588.315 131.606 579.674 147.546 569.421 157.077L583.037 171.726ZM537.569 191.481C550.161 190.706 568.365 185.364 583.037 171.726L569.421 157.077C558.726 167.017 545.182 170.974 536.34 171.519L537.569 191.481ZM381.104 191.5H536.954V171.5H381.104V191.5ZM413.804 61.6872C397.512 83.8271 382.007 118.86 365.847 170.786L384.944 176.729C400.939 125.33 415.657 92.9136 429.913 73.5409L413.804 61.6872ZM441.578 36.0893C431.664 41.3929 422.508 49.8583 413.804 61.6872L429.913 73.5409C437.391 63.378 444.426 57.2478 451.012 53.7247L441.578 36.0893ZM337.021 261.935C332.45 275.308 328.569 285.947 325.306 294.311L343.939 301.579C347.33 292.885 351.309 281.97 355.946 268.404L337.021 261.935ZM411.39 301.741C387.595 292.15 368.431 278.387 354.847 259.332L338.562 270.941C354.804 293.726 377.365 309.591 403.913 320.291L411.39 301.741ZM327.025 334.5H405.744V314.5H327.025V334.5ZM325.306 294.311C321.17 304.916 318.093 311.694 315.928 315.714L333.538 325.196C336.271 320.12 339.692 312.467 343.939 301.579L325.306 294.311ZM835.4 149.1V207H855.4V149.1H835.4ZM924.6 133.1H851.4V153.1H924.6V133.1ZM920.6 126.6V137.1H940.6V126.6H920.6ZM824.1 130.6H924.6V110.6H824.1V130.6ZM828.1 324V126.6H808.1V324H828.1ZM924.6 320H824.1V340H924.6V320ZM920.6 313.5V324H940.6V313.5H920.6ZM851.4 317.5H924.6V297.5H851.4V317.5ZM835.4 241.5V301.5H855.4V241.5H835.4ZM915.6 225.5H851.4V245.5H915.6V225.5ZM911.6 219V229.5H931.6V219H911.6ZM851.4 223H915.6V203H851.4V223ZM1169.61 172.6C1180.96 172.6 1190.69 174.982 1199.06 179.499L1208.56 161.901C1196.92 155.618 1183.85 152.6 1169.61 152.6V172.6ZM1139.38 180.761C1148.34 175.35 1158.34 172.6 1169.61 172.6V152.6C1154.88 152.6 1141.28 156.25 1129.04 163.639L1139.38 180.761ZM1126.41 192.473C1129.8 187.863 1134.08 183.958 1139.38 180.761L1129.04 163.639C1121.6 168.134 1115.31 173.799 1110.29 180.636L1126.41 192.473ZM1082.66 180.532C1088.04 183.681 1092.54 187.703 1096.21 192.643L1112.26 180.708C1106.97 173.592 1100.44 167.764 1092.76 163.268L1082.66 180.532ZM1051.11 172.6C1063.36 172.6 1073.77 175.335 1082.66 180.532L1092.76 163.268C1080.44 156.065 1066.46 152.6 1051.11 152.6V172.6ZM1025.28 178.444C1033 174.586 1041.55 172.6 1051.11 172.6V152.6C1038.67 152.6 1027.02 155.214 1016.34 160.556L1025.28 178.444ZM1017.6 183.396C1019.95 181.515 1022.53 179.85 1025.36 178.404L1016.26 160.596C1012.26 162.636 1008.54 165.031 1005.1 167.785L1017.6 183.396ZM977.909 175.6H993.91V155.6H977.909V175.6ZM981.909 324V171.6H961.909V324H981.909ZM993.209 320H977.909V340H993.209V320ZM989.209 239.4V324H1009.21V239.4H989.209ZM1004.5 193.277C993.785 204.755 989.209 220.678 989.209 239.4H1009.21C1009.21 223.722 1013.03 213.445 1019.12 206.923L1004.5 193.277ZM1045.71 176.3C1029.13 176.3 1014.99 181.782 1004.42 193.357L1019.19 206.843C1025.42 200.018 1033.88 196.3 1045.71 196.3V176.3ZM1085.81 192.773C1075.6 181.548 1061.83 176.3 1045.71 176.3V196.3C1057.19 196.3 1065.21 199.852 1071.01 206.227L1085.81 192.773ZM1100.71 237C1100.71 219.02 1096.2 203.669 1085.65 192.599L1071.17 206.401C1077.02 212.531 1080.71 222.18 1080.71 237H1100.71ZM1100.71 324V237H1080.71V324H1100.71ZM1111.71 320H1096.71V340H1111.71V320ZM1107.71 239.4V324H1127.71V239.4H1107.71ZM1123 193.277C1112.29 204.755 1107.71 220.678 1107.71 239.4H1127.71C1127.71 223.722 1131.53 213.445 1137.62 206.923L1123 193.277ZM1164.21 176.3C1147.63 176.3 1133.49 181.782 1122.92 193.357L1137.69 206.843C1143.92 200.018 1152.38 196.3 1164.21 196.3V176.3ZM1204.31 192.773C1194.1 181.548 1180.33 176.3 1164.21 176.3V196.3C1175.69 196.3 1183.71 199.852 1189.51 206.227L1204.31 192.773ZM1219.21 237C1219.21 219.02 1214.7 203.669 1204.15 192.599L1189.67 206.401C1195.52 212.531 1199.21 222.18 1199.21 237H1219.21ZM1219.21 324V237H1199.21V324H1219.21ZM1230.21 320H1215.21V340H1230.21V320ZM1226.21 233.1V324H1246.21V233.1H1226.21ZM1218.74 199.2C1223.55 207.996 1226.21 219.153 1226.21 233.1H1246.21C1246.21 216.647 1243.07 202.004 1236.28 189.6L1218.74 199.2ZM1199.2 179.572C1207.31 183.79 1213.82 190.208 1218.74 199.2L1236.28 189.6C1229.6 177.392 1220.31 168.01 1208.42 161.828L1199.2 179.572ZM1280.79 247.2C1280.79 231.77 1283.9 218.756 1289.79 207.849L1272.19 198.351C1264.48 212.644 1260.79 229.03 1260.79 247.2H1280.79ZM1289.85 286.965C1283.89 275.574 1280.79 262.4 1280.79 247.2H1260.79C1260.79 265.2 1264.49 281.626 1272.13 296.235L1289.85 286.965ZM1314.1 313.364C1303.94 307.167 1295.86 298.46 1289.85 286.965L1272.13 296.235C1279.72 310.74 1290.24 322.233 1303.68 330.436L1314.1 313.364ZM1348.49 322.7C1335.62 322.7 1324.24 319.552 1314.1 313.364L1303.68 330.436C1317.14 338.648 1332.16 342.7 1348.49 342.7V322.7ZM1380.64 314.768C1371.8 319.94 1361.2 322.7 1348.49 322.7V342.7C1364.18 342.7 1378.38 339.26 1390.74 332.032L1380.64 314.768ZM1388.91 309.014C1386.42 311.054 1383.65 312.984 1380.59 314.797L1390.79 332.003C1394.65 329.712 1398.26 327.21 1401.58 324.489L1388.91 309.014ZM1419.99 324V322.305H1399.99V324H1419.99ZM1431.59 320H1415.99V340H1431.59V320ZM1427.59 171.6V324H1447.59V171.6H1427.59ZM1415.99 175.6H1431.59V155.6H1415.99V175.6ZM1419.99 172.359V171.6H1399.99V172.359H1419.99ZM1381.24 180.832C1383.98 182.435 1386.48 184.135 1388.73 185.925L1401.16 170.25C1398.11 167.839 1394.84 165.614 1391.34 163.568L1381.24 180.832ZM1348.79 172.9C1361.73 172.9 1372.42 175.672 1381.24 180.832L1391.34 163.568C1378.96 156.328 1364.66 152.9 1348.79 152.9V172.9ZM1313.93 182.038C1324.32 175.976 1335.87 172.9 1348.79 172.9V152.9C1332.51 152.9 1317.46 156.824 1303.85 164.762L1313.93 182.038ZM1289.82 207.792C1295.81 196.517 1303.86 188.011 1313.99 182.001L1303.79 164.799C1290.32 172.789 1279.77 184.083 1272.16 198.408L1289.82 207.792ZM1419.99 247.5C1419.99 233.739 1417.21 221.239 1411.28 210.325L1393.7 219.875C1397.77 227.361 1399.99 236.461 1399.99 247.5H1419.99ZM1411.32 284.896C1417.21 273.829 1419.99 261.267 1419.99 247.5H1399.99C1399.99 258.533 1397.78 267.771 1393.66 275.504L1411.32 284.896ZM1387.12 310.145C1397.39 304.175 1405.45 295.697 1411.28 284.975L1393.7 275.425C1389.53 283.103 1384 288.825 1377.06 292.855L1387.12 310.145ZM1354.19 318.7C1366.03 318.7 1377.06 315.893 1387.05 310.182L1377.13 292.818C1370.32 296.707 1362.75 298.7 1354.19 298.7V318.7ZM1321.33 310.182C1331.32 315.893 1342.35 318.7 1354.19 318.7V298.7C1345.63 298.7 1338.06 296.707 1331.25 292.818L1321.33 310.182ZM1297.4 284.975C1303.2 295.638 1311.12 304.108 1321.18 310.093L1331.41 292.907C1324.66 288.892 1319.18 283.162 1314.98 275.425L1297.4 284.975ZM1288.69 247.2C1288.69 261.138 1291.46 273.807 1297.36 284.896L1315.02 275.504C1310.92 267.793 1308.69 258.462 1308.69 247.2H1288.69ZM1297.4 210.025C1291.47 220.939 1288.69 233.439 1288.69 247.2H1308.69C1308.69 236.161 1310.91 227.061 1314.98 219.575L1297.4 210.025ZM1321.33 185.118C1311.18 190.915 1303.22 199.332 1297.4 210.025L1314.98 219.575C1319.17 211.868 1324.6 206.285 1331.25 202.482L1321.33 185.118ZM1354.19 176.6C1342.35 176.6 1331.32 179.407 1321.33 185.118L1331.25 202.482C1338.06 198.593 1345.63 196.6 1354.19 196.6V176.6ZM1387.21 185.507C1377.19 179.545 1366.11 176.6 1354.19 176.6V196.6C1362.67 196.6 1370.19 198.655 1376.98 202.693L1387.21 185.507ZM1411.28 210.325C1405.43 199.572 1397.32 191.149 1386.96 185.368L1377.22 202.832C1384.06 206.651 1389.55 212.228 1393.7 219.875L1411.28 210.325ZM1563.82 172.6C1581.63 172.6 1595.16 177.947 1605.41 188.028L1619.44 173.772C1604.89 159.453 1586.02 152.6 1563.82 152.6V172.6ZM1537.32 178.482C1545.26 174.598 1554.04 172.6 1563.82 172.6V152.6C1551.21 152.6 1539.39 155.202 1528.53 160.518L1537.32 178.482ZM1529.3 183.54C1531.73 181.634 1534.42 179.932 1537.4 178.444L1528.45 160.556C1524.33 162.617 1520.49 165.03 1516.96 167.803L1529.3 183.54ZM1489.72 175.6H1505.71V155.6H1489.72V175.6ZM1493.72 324V171.6H1473.72V324H1493.72ZM1505.03 320H1489.72V340H1505.03V320ZM1501.03 239.1V324H1521.03V239.1H1501.03ZM1516.31 192.977C1505.6 204.455 1501.03 220.378 1501.03 239.1H1521.03C1521.03 223.422 1524.85 213.145 1530.94 206.623L1516.31 192.977ZM1558.12 176.3C1541.46 176.3 1527.18 181.603 1516.4 192.891L1530.85 206.709C1537.27 199.997 1545.99 196.3 1558.12 196.3V176.3ZM1599.04 192.683C1588.61 181.486 1574.55 176.3 1558.12 176.3V196.3C1570.1 196.3 1578.44 199.914 1584.41 206.317L1599.04 192.683ZM1614.03 237C1614.03 219.02 1609.52 203.669 1598.96 192.599L1584.49 206.401C1590.33 212.531 1594.03 222.18 1594.03 237H1614.03ZM1614.03 324V237H1594.03V324H1614.03ZM1625.03 320H1610.03V340H1625.03V320ZM1621.03 233.1V324H1641.03V233.1H1621.03ZM1605.47 188.086C1615.36 197.653 1621.03 212.102 1621.03 233.1H1641.03C1641.03 208.498 1634.29 188.147 1619.38 173.714L1605.47 188.086ZM1811.42 171.6V324H1831.42V171.6H1811.42ZM1800.12 175.6H1815.42V155.6H1800.12V175.6ZM1804.12 255.9V171.6H1784.12V255.9H1804.12ZM1788.83 302.023C1799.54 290.545 1804.12 274.622 1804.12 255.9H1784.12C1784.12 271.578 1780.3 281.855 1774.21 288.377L1788.83 302.023ZM1747.02 318.7C1763.83 318.7 1778.19 313.425 1788.83 302.023L1774.21 288.377C1768.05 294.975 1759.41 298.7 1747.02 298.7V318.7ZM1706.18 302.701C1716.63 313.661 1730.66 318.7 1747.02 318.7V298.7C1734.98 298.7 1726.61 295.139 1720.66 288.899L1706.18 302.701ZM1691.12 258.3C1691.12 276.136 1695.65 291.402 1706.1 302.617L1720.74 288.983C1714.79 282.598 1711.12 272.864 1711.12 258.3H1691.12ZM1691.12 171.6V258.3H1711.12V171.6H1691.12ZM1680.12 175.6H1695.12V155.6H1680.12V175.6ZM1684.12 261.9V171.6H1664.12V261.9H1684.12ZM1691.59 295.8C1686.78 287.004 1684.12 275.847 1684.12 261.9H1664.12C1664.12 278.353 1667.26 292.996 1674.05 305.4L1691.59 295.8ZM1711.8 315.762C1703.38 311.306 1696.64 304.709 1691.52 295.674L1674.12 305.526C1681 317.691 1690.46 327.094 1702.44 333.438L1711.8 315.762ZM1741.62 322.4C1730.21 322.4 1720.3 320.093 1711.66 315.691L1702.58 333.509C1714.34 339.507 1727.43 342.4 1741.62 342.4V322.4ZM1767.75 316.556C1760.06 320.401 1751.41 322.4 1741.62 322.4V342.4C1754.23 342.4 1765.98 339.799 1776.69 334.444L1767.75 316.556ZM1775.4 311.737C1773.09 313.518 1770.52 315.14 1767.67 316.594L1776.77 334.406C1780.65 332.425 1784.27 330.152 1787.61 327.577L1775.4 311.737ZM1815.42 320H1799.5V340H1815.42V320ZM2007.51 241.5C2007.51 244.8 2007.38 248.259 2007.12 251.879L2027.06 253.341C2027.36 249.273 2027.51 245.325 2027.51 241.5H2007.51ZM1998.89 206.182C2004.56 216.331 2007.51 228.018 2007.51 241.5H2027.51C2027.51 224.982 2023.86 209.869 2016.34 196.418L1998.89 206.182ZM1975.08 181.8C1985.46 187.679 1993.3 195.705 1998.79 206.006L2016.44 196.594C2009.13 182.895 1998.57 172.121 1984.94 164.4L1975.08 181.8ZM1938.61 172.9C1952.72 172.9 1964.78 175.959 1975.08 181.8L1984.94 164.4C1971.25 156.641 1955.71 152.9 1938.61 152.9V172.9ZM1900.93 182.108C1911.65 176.056 1924.12 172.9 1938.61 172.9V152.9C1921.11 152.9 1905.18 156.744 1891.1 164.692L1900.93 182.108ZM1876.35 207.492C1882.28 196.325 1890.43 187.96 1900.88 182.135L1891.15 164.665C1877.2 172.44 1866.35 183.675 1858.68 198.108L1876.35 207.492ZM1867.31 247.5C1867.31 231.853 1870.44 218.616 1876.35 207.491L1858.68 198.108C1850.99 212.584 1847.31 229.147 1847.31 247.5H1867.31ZM1876.62 287.759C1870.51 276.423 1867.31 263.098 1867.31 247.5H1847.31C1847.31 265.902 1851.11 282.577 1859.01 297.241L1876.62 287.759ZM1901.59 313.526C1891.05 307.479 1882.74 298.948 1876.59 287.702L1859.04 297.298C1866.89 311.652 1877.78 322.921 1891.64 330.874L1901.59 313.526ZM1938.61 322.7C1924.57 322.7 1912.29 319.566 1901.53 313.492L1891.7 330.908C1905.74 338.834 1921.46 342.7 1938.61 342.7V322.7ZM1981.85 309.971C1970.69 318.259 1956.49 322.7 1938.61 322.7V342.7C1959.94 342.7 1978.54 337.341 1993.78 326.029L1981.85 309.971ZM2002.41 283.135C1998.22 293.792 1991.42 302.725 1981.78 310.029L1993.85 325.971C2006.31 316.533 2015.44 304.659 2021.02 290.445L2002.41 283.135ZM1989.08 289.3H2006.31V269.3H1989.08V289.3ZM1973.75 309.692C1982 303.918 1988.26 296.446 1992.35 287.374L1974.12 279.151C1971.55 284.852 1967.66 289.538 1962.28 293.308L1973.75 309.692ZM1938.61 319.6C1951.95 319.6 1963.87 316.535 1973.71 309.722L1962.32 293.278C1956.56 297.265 1948.88 299.6 1938.61 299.6V319.6ZM1895.1 303.598C1907.24 314.31 1921.93 319.6 1938.61 319.6V299.6C1926.5 299.6 1916.59 295.89 1908.33 288.602L1895.1 303.598ZM1875.97 265.783C1878.16 280.94 1884.37 293.732 1894.94 303.459L1908.48 288.741C1901.75 282.543 1897.39 274.168 1895.76 262.915L1875.97 265.783ZM2011.2 248H1891.6V268H2011.2V248ZM1999 228.884C1998.15 219.673 1995.52 211.239 1990.91 203.821L1973.92 214.379C1976.69 218.835 1978.48 224.206 1979.09 230.731L1999 228.884ZM1892.08 245.8H1983.31V225.8H1892.08V245.8ZM1895.26 191.828C1885.19 201.057 1879.05 213.184 1876.52 227.558L1896.22 231.029C1898.1 220.353 1902.39 212.417 1908.77 206.572L1895.26 191.828ZM1937.41 176C1921.28 176 1907.06 181.227 1895.33 191.759L1908.7 206.64C1916.57 199.573 1925.95 196 1937.41 196V176ZM1968.08 183.102C1958.73 178.311 1948.45 176 1937.41 176V196C1945.58 196 1952.69 197.689 1958.95 200.898L1968.08 183.102ZM1990.97 203.922C1985.36 194.653 1977.58 187.61 1967.8 182.967L1959.22 201.033C1965.45 203.99 1970.27 208.347 1973.86 214.278L1990.97 203.922ZM2070.85 114V324H2090.85V114H2070.85ZM2059.55 118H2074.85V98H2059.55V118ZM2063.55 324V114H2043.55V324H2063.55ZM2074.85 320H2059.55V340H2074.85V320ZM1989.08 269.3C1982.1 269.3 1976.57 273.717 1974.12 279.151L1992.35 287.374C1992 288.152 1990.96 289.3 1989.08 289.3V269.3ZM1680.12 155.6C1671.28 155.6 1664.12 162.763 1664.12 171.6H1684.12C1684.12 173.809 1682.33 175.6 1680.12 175.6V155.6ZM1711.12 171.6C1711.12 162.763 1703.96 155.6 1695.12 155.6V175.6C1692.91 175.6 1691.12 173.809 1691.12 171.6H1711.12ZM1800.12 155.6C1791.28 155.6 1784.12 162.763 1784.12 171.6H1804.12C1804.12 173.809 1802.33 175.6 1800.12 175.6V155.6ZM1811.42 324C1811.42 321.791 1813.21 320 1815.42 320V340C1824.26 340 1831.42 332.837 1831.42 324H1811.42ZM1831.42 171.6C1831.42 162.763 1824.26 155.6 1815.42 155.6V175.6C1813.21 175.6 1811.42 173.809 1811.42 171.6H1831.42ZM1625.03 340C1633.86 340 1641.03 332.837 1641.03 324H1621.03C1621.03 321.791 1622.82 320 1625.03 320V340ZM1594.03 324C1594.03 332.837 1601.19 340 1610.03 340V320C1612.23 320 1614.03 321.791 1614.03 324H1594.03ZM1505.03 340C1513.86 340 1521.03 332.837 1521.03 324H1501.03C1501.03 321.791 1502.82 320 1505.03 320V340ZM1521.03 170.912C1521.03 162.456 1514.17 155.6 1505.71 155.6V175.6C1503.12 175.6 1501.03 173.501 1501.03 170.912H1521.03ZM1399.99 172.359C1399.99 171.731 1400.13 171.135 1400.34 170.631C1400.55 170.146 1400.79 169.831 1400.94 169.663C1401.21 169.373 1401.26 169.454 1400.89 169.585C1400.55 169.707 1400.24 169.728 1400.12 169.718C1399.98 169.707 1400.47 169.707 1401.16 170.25L1388.73 185.925C1394.81 190.738 1402.57 190.242 1407.68 188.396C1412.66 186.599 1419.99 181.564 1419.99 172.359H1399.99ZM1415.99 155.6C1407.15 155.6 1399.99 162.763 1399.99 171.6H1419.99C1419.99 173.809 1418.2 175.6 1415.99 175.6V155.6ZM1399.99 324C1399.99 332.837 1407.15 340 1415.99 340V320C1418.2 320 1419.99 321.791 1419.99 324H1399.99ZM1401.58 324.489C1400.91 325.039 1400.4 325.066 1400.46 325.06C1400.53 325.055 1400.77 325.063 1401.04 325.161C1401.34 325.267 1401.24 325.315 1400.94 324.991C1400.78 324.807 1400.53 324.482 1400.33 323.996C1400.12 323.492 1399.99 322.909 1399.99 322.305H1419.99C1419.99 313.184 1412.82 308.134 1407.78 306.331C1402.64 304.491 1394.91 304.104 1388.91 309.014L1401.58 324.489ZM1892.08 225.8C1894.15 225.8 1896.79 227.783 1896.22 231.029L1876.52 227.558C1874.73 237.748 1882.95 245.8 1892.08 245.8V225.8ZM993.209 340C1002.05 340 1009.21 332.837 1009.21 324H989.209C989.209 321.791 990.999 320 993.209 320V340ZM961.909 324C961.909 332.837 969.072 340 977.909 340V320C980.118 320 981.909 321.791 981.909 324H961.909ZM1979.09 230.731C1978.79 227.534 1981.4 225.8 1983.31 225.8V245.8C1991.86 245.8 1999.91 238.68 1999 228.884L1979.09 230.731ZM977.909 155.6C969.072 155.6 961.909 162.763 961.909 171.6H981.909C981.909 173.809 980.118 175.6 977.909 175.6V155.6ZM1895.76 262.915C1896.22 266.093 1893.64 268 1891.6 268V248C1882.63 248 1874.51 255.758 1875.97 265.783L1895.76 262.915ZM1009.21 170.898C1009.21 162.449 1002.36 155.6 993.91 155.6V175.6C991.314 175.6 989.209 173.495 989.209 170.898H1009.21ZM1005.1 167.785C1005.82 167.208 1006.47 167.081 1006.72 167.056C1006.96 167.032 1007.09 167.067 1007.17 167.097C1007.24 167.122 1007.63 167.274 1008.11 167.83C1008.66 168.47 1009.21 169.559 1009.21 170.898H989.209C989.209 179.254 995.453 184.101 1000.28 185.873C1005.12 187.649 1012.08 187.82 1017.6 183.396L1005.1 167.785ZM2021.02 290.445C2025.34 279.436 2016.5 269.3 2006.31 269.3V289.3C2005.04 289.3 2003.79 288.667 2002.98 287.575C2002.13 286.417 2001.79 284.701 2002.41 283.135L2021.02 290.445ZM1110.29 180.636C1110.66 180.136 1111.03 179.929 1111.17 179.868C1111.29 179.814 1111.29 179.837 1111.2 179.838C1111.11 179.839 1111.13 179.816 1111.29 179.882C1111.46 179.955 1111.87 180.182 1112.26 180.708L1096.21 192.643C1100.18 197.978 1106.34 199.889 1111.4 199.837C1116.47 199.785 1122.53 197.758 1126.41 192.473L1110.29 180.636ZM931.6 219C931.6 210.163 924.437 203 915.6 203V223C913.391 223 911.6 221.209 911.6 219H931.6ZM915.6 245.5C924.437 245.5 931.6 238.337 931.6 229.5H911.6C911.6 227.291 913.391 225.5 915.6 225.5V245.5ZM855.4 241.5C855.4 243.709 853.609 245.5 851.4 245.5V225.5C842.563 225.5 835.4 232.663 835.4 241.5H855.4ZM851.4 297.5C853.609 297.5 855.4 299.291 855.4 301.5H835.4C835.4 310.337 842.563 317.5 851.4 317.5V297.5ZM940.6 313.5C940.6 304.663 933.437 297.5 924.6 297.5V317.5C922.391 317.5 920.6 315.709 920.6 313.5H940.6ZM924.6 340C933.437 340 940.6 332.837 940.6 324H920.6C920.6 321.791 922.391 320 924.6 320V340ZM940.6 126.6C940.6 117.763 933.437 110.6 924.6 110.6V130.6C922.391 130.6 920.6 128.809 920.6 126.6H940.6ZM1784.12 324.618C1784.12 333.113 1791.01 340 1799.5 340V320C1802.05 320 1804.12 322.068 1804.12 324.618H1784.12ZM924.6 153.1C933.437 153.1 940.6 145.937 940.6 137.1H920.6C920.6 134.891 922.391 133.1 924.6 133.1V153.1ZM1787.61 327.577C1786.88 328.14 1786.26 328.228 1786.1 328.241C1786 328.249 1785.96 328.242 1785.95 328.241C1785.95 328.241 1785.94 328.24 1785.93 328.234C1785.91 328.229 1785.84 328.203 1785.73 328.129C1785.62 328.056 1785.42 327.906 1785.2 327.642C1784.69 327.061 1784.12 325.992 1784.12 324.618H1804.12C1804.12 316.129 1797.69 311.276 1792.92 309.495C1788.09 307.697 1781.05 307.379 1775.4 311.737L1787.61 327.577ZM835.4 207C835.4 215.837 842.563 223 851.4 223V203C853.609 203 855.4 204.791 855.4 207H835.4ZM855.4 149.1C855.4 151.309 853.609 153.1 851.4 153.1V133.1C842.563 133.1 835.4 140.263 835.4 149.1H855.4ZM403.913 320.291C401.651 319.38 400.886 317.652 400.743 317.237C400.602 316.833 400.692 316.827 400.648 317.147C400.601 317.491 400.53 317.298 400.936 316.746C401.169 316.429 401.658 315.871 402.505 315.375C403.408 314.845 404.535 314.5 405.744 314.5V334.5C411.126 334.5 414.925 331.48 417.043 328.602C419.081 325.833 420.081 322.643 420.462 319.866C420.847 317.064 420.722 313.812 419.641 310.692C418.557 307.563 416.126 303.651 411.39 301.741L403.913 320.291ZM1516.96 167.803C1517.67 167.239 1518.31 167.118 1518.57 167.095C1518.81 167.074 1518.93 167.109 1519.01 167.14C1519.08 167.166 1519.48 167.321 1519.95 167.873C1520.49 168.508 1521.03 169.586 1521.03 170.912H1501.03C1501.03 179.217 1507.2 184.075 1512.01 185.874C1516.83 187.677 1523.76 187.885 1529.3 183.54L1516.96 167.803ZM376.2 195.175C379.33 184.871 371.587 174.498 360.836 174.538L360.912 194.538C358.224 194.548 356.277 191.952 357.064 189.363L376.2 195.175ZM334.944 190.159C335.146 192.741 333.092 194.643 330.89 194.651L330.815 174.651C321.775 174.685 314.267 182.323 315.005 191.723L334.944 190.159ZM330.549 251.711C337.232 265.202 355.107 261.695 359.137 249.415L340.135 243.179C340.626 241.683 342.083 240.506 343.808 240.33C345.643 240.143 347.627 241.129 348.471 242.833L330.549 251.711ZM320.765 174.689C314.813 174.711 310 179.542 310 185.495H330C330 190.559 325.905 194.67 320.84 194.689L320.765 174.689ZM331.599 184.943C331.305 179.258 326.609 174.667 320.765 174.689L320.84 194.689C315.859 194.707 311.875 190.799 311.626 185.975L331.599 184.943ZM352.955 267.88C354.58 263.131 353.833 258.065 351.315 254.057L334.38 264.696C333.839 263.835 333.611 262.634 334.033 261.403L352.955 267.88ZM313.287 314.292C315.239 310.666 319.52 308.874 323.513 309.988C327.378 311.066 330 314.581 330 318.457H310C310 323.574 313.374 327.923 318.138 329.252C323.029 330.617 328.356 328.492 330.897 323.774L313.287 314.292ZM117.841 323.448C117.352 317.994 112.545 313.729 106.833 314.229L108.575 334.153C103.044 334.636 98.3932 330.506 97.9208 325.233L117.841 323.448ZM107.203 314.527C113.18 314.018 117.412 318.655 117.841 323.448L97.9208 325.233C98.3664 330.207 102.742 334.979 108.9 334.454L107.203 314.527ZM244.056 194.977C241.164 194.988 239.008 191.898 240.406 189.058L258.35 197.89C263.629 187.166 255.661 174.934 243.981 174.977L244.056 194.977ZM808.1 324C808.1 332.837 815.263 340 824.1 340V320C826.309 320 828.1 321.791 828.1 324H808.1ZM95.5208 185.625C95.4537 180.305 99.6693 175.577 105.386 175.501L105.653 195.499C111.37 195.423 115.586 190.693 115.519 185.373L95.5208 185.625ZM608.05 325.619C607.814 319.411 602.714 314.5 596.501 314.5V334.5C591.962 334.5 588.236 330.912 588.064 326.376L608.05 325.619ZM355.946 268.404C353.403 275.845 343.324 277.636 338.556 270.933L354.853 259.34C349.967 252.471 339.631 254.302 337.021 261.935L355.946 268.404ZM597.361 337.581C603.559 337.118 608.285 331.835 608.05 325.619L588.064 326.376C587.892 321.834 591.345 317.974 595.874 317.636L597.361 337.581ZM381.104 171.5C383.797 171.5 385.758 174.113 384.944 176.729L365.847 170.786C362.641 181.089 370.361 191.5 381.104 191.5V171.5ZM308.5 326.7C308.5 332.665 313.335 337.5 319.3 337.5V317.5C324.381 317.5 328.5 321.619 328.5 326.7H308.5ZM317.75 335.9C312.641 335.9 308.5 331.758 308.5 326.65H328.5C328.5 320.713 323.687 315.9 317.75 315.9V335.9ZM307 325.15C307 331.087 311.813 335.9 317.75 335.9V315.9C322.859 315.9 327 320.041 327 325.15H307ZM311.015 194.726C308.8 194.734 307 192.941 307 190.726H327C327 181.866 319.8 174.692 310.94 174.726L311.015 194.726ZM2007.12 251.879C2007.29 249.528 2009.23 248 2011.2 248V268C2019.32 268 2026.44 261.824 2027.06 253.341L2007.12 251.879ZM824.1 110.6C815.263 110.6 808.1 117.763 808.1 126.6H828.1C828.1 128.809 826.309 130.6 824.1 130.6V110.6ZM115.519 185.373C115.59 190.997 111.047 195.477 105.558 195.498L105.483 175.498C99.9937 175.519 95.4499 180 95.5208 185.625L115.519 185.373ZM327 77.8411C327 60.9371 303.99 55.451 296.652 71.0228L314.744 79.5478C312.846 83.5772 307 81.9855 307 77.8411H327ZM94.9944 182.54C94.9758 177.271 99.1454 172.634 104.773 172.511L105.208 192.506C110.84 192.384 115.013 187.742 114.994 182.469L94.9944 182.54ZM267.06 171.891C269.897 171.88 271.908 174.788 270.771 177.486L252.343 169.712C247.871 180.312 255.722 191.933 267.136 191.891L267.06 171.891ZM2043.55 324C2043.55 332.837 2050.71 340 2059.55 340V320C2061.76 320 2063.55 321.791 2063.55 324H2043.55ZM1111.71 340C1120.55 340 1127.71 332.837 1127.71 324H1107.71C1107.71 321.791 1109.5 320 1111.71 320V340ZM104.961 172.5C99.4368 172.521 94.9749 177.015 94.9944 182.54L114.994 182.469C115.014 187.989 110.556 192.479 105.036 192.5L104.961 172.5ZM311.06 191.725C319.873 191.692 327 184.539 327 175.726H307C307 173.522 308.782 171.734 310.985 171.726L311.06 191.725ZM2059.55 98C2050.71 98 2043.55 105.163 2043.55 114H2063.55C2063.55 116.209 2061.76 118 2059.55 118V98ZM1080.71 324C1080.71 332.837 1087.87 340 1096.71 340V320C1098.92 320 1100.71 321.791 1100.71 324H1080.71ZM247.121 174.402C247.736 172.93 249.177 171.958 250.788 171.952L250.863 191.952C257.31 191.927 263.099 188.041 265.577 182.108L247.121 174.402ZM314.356 175.833C314.346 184.829 321.739 191.685 330.313 191.653L330.238 171.653C332.323 171.645 334.359 173.348 334.356 175.856L314.356 175.833ZM2070.85 324C2070.85 321.791 2072.64 320 2074.85 320V340C2083.69 340 2090.85 332.837 2090.85 324H2070.85ZM322.611 35.8796C317.333 33.3207 310.475 35.1847 307.631 41.0584L325.632 49.7743C323.375 54.4352 317.951 55.8471 313.885 53.8759L322.611 35.8796ZM2090.85 114C2090.85 105.163 2083.69 98 2074.85 98V118C2072.64 118 2070.85 116.209 2070.85 114H2090.85ZM318.78 35C320.107 35 321.417 35.3007 322.611 35.8796L313.885 53.8759C315.411 54.6157 317.085 55 318.78 55V35ZM1230.21 340C1239.05 340 1246.21 332.837 1246.21 324H1226.21C1226.21 321.791 1228 320 1230.21 320V340ZM264.18 192.699C263.585 193.961 262.282 194.909 260.632 194.915L260.557 174.915C254.238 174.939 248.672 178.687 246.087 184.175L264.18 192.699ZM1447.59 171.6C1447.59 162.763 1440.43 155.6 1431.59 155.6V175.6C1429.38 175.6 1427.59 173.809 1427.59 171.6H1447.59ZM380.398 191.668C379.893 193.338 378.352 194.5 376.575 194.5V174.5C369.502 174.5 363.291 179.143 361.254 185.881L380.398 191.668ZM1473.72 324C1473.72 332.837 1480.89 340 1489.72 340V320C1491.93 320 1493.72 321.791 1493.72 324H1473.72ZM427.496 71.7628C430.18 68.1151 430.735 63.9924 430.484 60.7343C430.232 57.461 429.143 54.3593 427.629 51.7734C426.14 49.23 423.87 46.5618 420.717 44.7721C417.37 42.8718 412.782 41.9044 408.03 43.7995L415.439 62.3766C414.583 62.7182 413.629 62.8434 412.711 62.7424C411.837 62.6461 411.205 62.3704 410.843 62.1648C410.21 61.8053 410.183 61.5597 410.37 61.8782C410.531 62.1542 410.549 62.3538 410.543 62.2682C410.537 62.1978 410.475 61.1492 411.387 59.9091L427.496 71.7628ZM330 46.2199C330 40.0233 324.977 35 318.78 35V55C313.931 55 310 51.069 310 46.2199H330ZM1199.21 324C1199.21 332.837 1206.37 340 1215.21 340V320C1217.42 320 1219.21 321.791 1219.21 324H1199.21ZM98.1414 328.143C98.5508 333.174 102.956 337.968 109.121 337.446L107.435 317.518C113.42 317.011 117.681 321.67 118.075 326.521L98.1414 328.143ZM327.025 314.5C330.174 314.5 332.455 316.369 333.511 318.261C334.542 320.107 334.863 322.734 333.538 325.196L315.929 315.714C311.763 323.45 316.711 334.5 327.025 334.5V314.5ZM1431.59 340C1440.43 340 1447.59 332.837 1447.59 324H1427.59C1427.59 321.791 1429.38 320 1431.59 320V340ZM357.29 257.59C358.334 259.055 358.513 260.827 358.014 262.31L339.059 255.927C337.587 260.299 338.191 265.252 341.004 269.2L357.29 257.59ZM1489.72 155.6C1480.89 155.6 1473.72 162.763 1473.72 171.6H1493.72C1493.72 173.809 1491.93 175.6 1489.72 175.6V155.6ZM361.616 174.32C362.115 172.693 363.623 171.528 365.407 171.521L365.483 191.521C372.543 191.494 378.696 186.848 380.739 180.177L361.616 174.32ZM320.678 171.689C325.821 171.67 330 175.833 330 180.976H310C310 186.908 314.821 191.711 320.753 191.689L320.678 171.689ZM108.8 337.144C103.232 337.629 98.5728 333.444 98.1414 328.143L118.075 326.521C117.629 321.039 112.815 316.719 107.066 317.22L108.8 337.144ZM311.432 181.234C311.286 176.173 315.304 171.709 320.678 171.689L320.753 191.689C326.932 191.666 331.592 186.521 331.423 180.657L311.432 181.234Z" fill="black"/>
</svg>
