<svg width="2114" height="382" viewBox="0 0 2114 382" fill="none" xmlns="http://www.w3.org/2000/svg">
<rect width="2114" height="382" fill="#E5E5E5"/>
<g clip-path="url(#clip0)">
<rect width="2114" height="382" fill="white"/>
<path fill-rule="evenodd" clip-rule="evenodd" d="M549.135 45.9642C575.363 55.4366 597.44 73.0494 599.497 103.9C601.524 134.312 591.63 154.182 578.271 166.599C564.973 178.96 548.372 183.814 537.091 184.497L537.045 184.5H537H376.575C373.927 184.5 371.592 186.24 370.826 188.775C362.14 217.504 354.762 240.628 348.536 259.119C348.05 260.563 348.262 262.154 349.147 263.395V263.395C363.662 283.756 384.014 298.255 408.773 308.234C429.371 316.536 452.983 321.697 478.747 324.5H596.501C597.338 324.5 598.025 325.162 598.057 325.998V325.998C598.088 326.834 597.452 327.546 596.617 327.608C554.826 330.724 514.682 331.412 478.589 327.5H319.3C318.858 327.5 318.5 327.142 318.5 326.7V326.65C318.5 326.235 318.164 325.9 317.75 325.9V325.9C317.336 325.9 317 325.564 317 325.15V190.726C317 187.403 314.3 184.713 310.977 184.726L260.595 184.915C258.26 184.924 256.129 186.324 255.134 188.437C205.619 293.538 137.281 325.028 108.278 327.482C108.188 327.49 108.116 327.422 108.108 327.332V327.332C108.101 327.242 108.023 327.174 107.933 327.182C94.9208 328.315 76.1382 326.729 60.4174 317.337C44.5046 307.831 31.922 290.435 31.5101 260.39C31.0984 230.352 43.2823 210.897 58.7936 198.951C74.0362 187.213 92.4092 182.782 104.99 182.509C104.993 182.509 104.994 182.507 104.994 182.504V182.504C104.994 182.502 104.996 182.5 104.999 182.5L250.826 181.952C253.244 181.943 255.418 180.486 256.349 178.255C278.869 124.321 305.855 67.6729 316.631 45.4163C316.925 44.81 317.642 44.5839 318.248 44.8778V44.8778C318.414 44.9582 318.596 45 318.78 45V45C319.454 45 320 45.5461 320 46.2199V180.976C320 181.371 320.321 181.691 320.716 181.689V181.689C321.118 181.688 321.439 181.347 321.427 180.945C319.876 127.177 343.811 91.8511 374.887 69.6053C399.915 51.6886 429.55 42.2651 454.2 38.4116C459.991 36.6908 465.909 36.1201 471.992 36.4965C492.292 34.9993 522.96 36.5111 549.135 45.9642ZM105.521 185.498C105.52 185.498 105.52 185.498 105.52 185.499V185.499C105.52 185.499 105.52 185.5 105.519 185.5C93.4633 185.661 75.4681 189.897 60.6241 201.328C45.8493 212.707 34.1113 231.272 34.5099 260.349C34.9083 289.417 46.9911 305.822 61.956 314.762C76.9673 323.73 95.0706 325.295 107.704 324.191C107.794 324.183 107.873 324.25 107.881 324.341V324.341C107.889 324.431 107.961 324.498 108.051 324.491C135.163 322.182 200.501 292.775 249.378 193.474C251.319 189.532 248.412 184.961 244.019 184.977L105.521 185.498ZM322.092 319.033V319.033C321.503 320.125 320 319.698 320 318.457V185.495C320 185.051 320.359 184.69 320.803 184.689V184.689C321.234 184.687 321.59 185.028 321.612 185.459C323.166 215.522 330.584 239.856 342.847 259.376C343.836 260.95 344.096 262.883 343.494 264.641C338.966 277.869 335.101 288.463 331.828 296.855C327.653 307.559 324.455 314.643 322.092 319.033ZM349.636 246.297C348.062 251.092 341.75 251.795 339.51 247.272C331.706 231.518 326.697 212.891 324.974 190.941C324.707 187.532 327.433 184.664 330.853 184.651L360.874 184.538C364.905 184.523 367.804 188.412 366.632 192.269C360.264 213.236 354.62 231.111 349.636 246.297ZM419.442 65.836C403.433 87.5908 387.785 123.028 371.178 177.249C370.405 179.771 368.083 181.511 365.445 181.521L330.275 181.653C327.031 181.665 324.352 179.088 324.356 175.844C324.414 125.997 347.254 93.0762 376.633 72.0447C387.69 64.1291 399.679 57.8959 411.735 53.0881C417.288 50.8734 422.985 61.0208 419.442 65.836V65.836ZM317 175.726C317 179.03 314.327 181.713 311.023 181.725L267.098 181.891C262.809 181.907 259.89 177.55 261.557 173.599C276.634 137.859 293.344 101.505 305.698 75.2853C308.418 69.5141 317 71.4613 317 77.8411V175.726ZM454.867 41.3437C451.976 42.2163 449.122 43.3948 446.295 44.907C438.045 49.3204 429.95 56.6181 421.858 67.614C406.584 88.3704 391.473 122.095 375.395 173.757C374.199 177.601 377.079 181.5 381.104 181.5H536.954C547.672 180.84 563.545 176.191 576.229 164.401C588.87 152.651 598.476 133.688 596.503 104.1C594.56 74.9506 573.804 58.0634 548.115 48.7858C522.418 39.5049 492.145 38.0058 472.111 39.4959L472.098 39.4969L472.084 39.4976C466.757 39.7962 460.968 40.3966 454.867 41.3437ZM346.704 265.136C346.645 265.053 346.517 265.073 346.484 265.17C341.879 278.639 337.949 289.416 334.622 297.945C330.431 308.691 327.182 315.907 324.733 320.455V320.455C323.79 322.207 325.035 324.5 327.025 324.5H405.744C411.081 324.5 412.601 313.011 407.651 311.016V311.016C382.48 300.87 361.618 286.057 346.704 265.136V265.136Z" fill="black"/>
<path d="M599.497 103.9L611.969 103.069L611.969 103.069L599.497 103.9ZM549.135 45.9642L553.381 34.2074L553.381 34.2074L549.135 45.9642ZM578.271 166.599L586.781 175.754L586.781 175.754L578.271 166.599ZM537.091 184.497L537.847 196.974L537.847 196.974L537.091 184.497ZM537.045 184.5V197H537.424L537.802 196.977L537.045 184.5ZM408.773 308.234L404.1 319.827L404.1 319.827L408.773 308.234ZM478.747 324.5L477.395 336.927L478.069 337H478.747V324.5ZM478.589 327.5L479.936 315.073L479.264 315H478.589V327.5ZM60.4174 317.337L66.8282 306.606L66.8282 306.606L60.4174 317.337ZM31.5101 260.39L44.009 260.218L31.5101 260.39ZM58.7936 198.951L66.4205 208.855L66.4205 208.855L58.7936 198.951ZM374.887 69.6053L382.163 79.7694L382.163 79.7694L374.887 69.6053ZM454.2 38.4116L456.131 50.7616L456.958 50.6323L457.761 50.3937L454.2 38.4116ZM471.992 36.4965L471.219 48.9727L472.066 49.025L472.911 48.9627L471.992 36.4965ZM60.6241 201.328L52.9971 191.425L52.9971 191.425L60.6241 201.328ZM34.5099 260.349L22.011 260.52L34.5099 260.349ZM61.956 314.762L55.5452 325.493L55.5452 325.493L61.956 314.762ZM331.828 296.855L320.182 292.313L320.182 292.313L331.828 296.855ZM376.633 72.0447L369.357 61.8806L369.357 61.8806L376.633 72.0447ZM446.295 44.907L452.191 55.9291L452.191 55.9291L446.295 44.907ZM454.867 41.3437L452.949 28.9916L452.088 29.1253L451.254 29.3772L454.867 41.3437ZM421.858 67.614L411.79 60.2055L411.79 60.2055L421.858 67.614ZM536.954 181.5V194H537.339L537.722 193.976L536.954 181.5ZM576.229 164.401L567.719 155.246L567.719 155.246L576.229 164.401ZM596.503 104.1L584.031 104.931L584.031 104.931L596.503 104.1ZM548.115 48.7858L552.361 37.0291L552.361 37.0291L548.115 48.7858ZM472.111 39.4959L471.184 27.0303L471.183 27.0304L472.111 39.4959ZM472.098 39.4969L472.797 51.9773L472.911 51.9709L473.026 51.9624L472.098 39.4969ZM472.084 39.4976L471.385 27.0172L471.384 27.0172L472.084 39.4976ZM334.622 297.945L322.977 293.403L322.977 293.403L334.622 297.945ZM267.098 181.891L267.051 169.391L267.098 181.891ZM261.557 173.599L250.04 168.74L261.557 173.599ZM411.735 53.0881L416.365 64.6987L411.735 53.0881ZM371.178 177.249L383.13 180.91L371.178 177.249ZM365.445 181.521L365.398 169.021L365.445 181.521ZM360.874 184.538L360.921 197.038L360.874 184.538ZM366.632 192.269L354.671 188.637L366.632 192.269ZM339.51 247.272L328.309 252.82L339.51 247.272ZM349.636 246.297L361.513 250.195L349.636 246.297ZM324.974 190.941L337.436 189.963L324.974 190.941ZM330.853 184.651L330.9 197.151L330.853 184.651ZM342.847 259.376L353.432 252.727L342.847 259.376ZM343.494 264.641L331.667 260.594L343.494 264.641ZM321.612 185.459L309.129 186.104L321.612 185.459ZM249.378 193.474L238.163 187.954L249.378 193.474ZM244.019 184.977L244.066 197.477L244.019 184.977ZM105.519 185.5L105.352 173.001L105.352 173.001L105.519 185.5ZM321.427 180.945L308.933 181.306L321.427 180.945ZM316.631 45.4163L327.882 50.8638L316.631 45.4163ZM250.826 181.952L250.779 169.452L250.826 181.952ZM256.349 178.255L244.814 173.438L256.349 178.255ZM346.484 265.17L334.656 261.126L346.484 265.17ZM104.999 182.5L104.952 170L104.999 182.5ZM104.99 182.509L104.718 170.012L104.99 182.509ZM107.933 327.182L106.849 314.729L107.933 327.182ZM108.278 327.482L109.332 339.938L108.278 327.482ZM375.395 173.757L363.46 170.043L375.395 173.757ZM105.521 185.498L105.568 197.998L105.521 185.498ZM305.698 75.2853L294.391 69.9572L305.698 75.2853ZM596.617 327.608L595.688 315.143L596.617 327.608ZM108.051 324.491L106.991 312.036L108.051 324.491ZM260.595 184.915L260.642 197.415L260.595 184.915ZM255.134 188.437L266.442 193.764L255.134 188.437ZM330.275 181.653L330.228 169.153L330.275 181.653ZM324.356 175.844L311.856 175.83L324.356 175.844ZM348.536 259.119L336.69 255.13L348.536 259.119ZM311.023 181.725L310.976 169.226L311.023 181.725ZM107.704 324.191L106.615 311.738L107.704 324.191ZM310.977 184.726L310.93 172.226L310.977 184.726ZM370.826 188.775L358.861 185.157L370.826 188.775ZM611.969 103.069C609.439 65.1226 581.851 44.4896 553.381 34.2074L544.888 57.7209C568.875 66.3837 585.441 80.9762 587.024 104.732L611.969 103.069ZM586.781 175.754C603.126 160.563 614.225 136.913 611.969 103.069L587.024 104.732C588.823 131.711 580.133 147.802 569.761 157.443L586.781 175.754ZM537.847 196.974C551.476 196.148 570.993 190.429 586.781 175.754L569.761 157.443C558.952 167.49 545.269 171.479 536.335 172.02L537.847 196.974ZM537.802 196.977L537.847 196.974L536.335 172.02L536.289 172.023L537.802 196.977ZM537 197H537.045V172H537V197ZM376.575 197H537V172H376.575V197ZM360.383 263.108C366.66 244.467 374.077 221.214 382.791 192.392L358.861 185.157C350.203 213.793 342.865 236.79 336.69 255.13L360.383 263.108ZM413.446 296.64C390.408 287.355 372.179 274.169 359.326 256.139L338.969 270.651C355.145 293.343 377.62 309.154 404.1 319.827L413.446 296.64ZM480.099 312.073C455.104 309.354 432.681 304.393 413.446 296.64L404.1 319.827C426.06 328.679 450.863 334.04 477.395 336.927L480.099 312.073ZM596.501 312H478.747V337H596.501V312ZM477.242 339.927C514.394 343.954 555.376 343.218 597.547 340.074L595.688 315.143C554.276 318.23 514.971 318.87 479.936 315.073L477.242 339.927ZM319.3 340H478.589V315H319.3V340ZM306 326.65V326.7H331V326.65H306ZM304.5 190.726V325.15H329.5V190.726H304.5ZM260.642 197.415L311.024 197.226L310.93 172.226L260.548 172.415L260.642 197.415ZM109.332 339.938C143.916 337.012 215.567 301.752 266.442 193.764L243.826 183.109C195.671 285.325 130.647 313.045 107.224 315.027L109.332 339.938ZM106.849 314.729C95.4107 315.725 79.536 314.198 66.8282 306.606L54.0066 328.068C72.7403 339.26 94.4308 340.905 109.017 339.635L106.849 314.729ZM66.8282 306.606C54.8656 299.46 44.365 286.196 44.009 260.218L19.0113 260.561C19.4789 294.674 34.1436 316.202 54.0066 328.068L66.8282 306.606ZM44.009 260.218C43.6521 234.184 53.9779 218.437 66.4205 208.855L51.1667 189.048C32.5867 203.357 18.5447 226.52 19.0113 260.561L44.009 260.218ZM66.4205 208.855C79.1994 199.014 94.8662 195.232 105.262 195.006L104.718 170.012C89.9523 170.333 68.873 175.412 51.1667 189.048L66.4205 208.855ZM250.779 169.452L104.952 170L105.046 195L250.873 194.452L250.779 169.452ZM305.381 39.9689C294.574 62.2887 267.469 119.183 244.814 173.438L267.884 183.071C290.269 129.46 317.136 73.057 327.882 50.8638L305.381 39.9689ZM332.5 180.976V46.2199H307.5V180.976H332.5ZM367.611 59.4412C333.549 83.8246 307.248 122.915 308.933 181.306L333.922 180.585C332.505 131.439 354.073 99.8776 382.163 79.7694L367.611 59.4412ZM452.269 26.0616C426.256 30.1281 394.633 40.0969 367.611 59.4412L382.163 79.7694C405.197 63.2803 432.843 54.402 456.131 50.7616L452.269 26.0616ZM472.764 24.0204C465.376 23.5632 457.977 24.2488 450.639 26.4295L457.761 50.3937C462.004 49.1328 466.442 48.677 471.219 48.9727L472.764 24.0204ZM553.381 34.2074C525.039 23.9715 492.482 22.4513 471.072 24.0304L472.911 48.9627C492.103 47.5472 520.881 49.0507 544.888 57.7209L553.381 34.2074ZM105.352 173.001C91.0686 173.192 70.3293 178.077 52.9971 191.425L68.251 211.232C80.6069 201.716 95.8581 198.13 105.686 197.999L105.352 173.001ZM52.9971 191.425C35.1535 205.167 21.5576 227.44 22.011 260.52L47.0087 260.177C46.665 235.104 56.5451 220.247 68.251 211.232L52.9971 191.425ZM22.011 260.52C22.4653 293.658 36.6313 314.193 55.5452 325.493L68.3668 304.031C57.351 297.45 47.3513 285.177 47.0087 260.177L22.011 260.52ZM55.5452 325.493C73.5712 336.262 94.5843 337.886 108.793 336.643L106.615 311.738C95.557 312.705 80.3634 311.198 68.3668 304.031L55.5452 325.493ZM238.163 187.954C190.679 284.425 128.637 310.192 106.991 312.036L109.112 336.945C141.688 334.171 210.323 301.125 260.593 198.994L238.163 187.954ZM105.568 197.998L244.066 197.477L243.972 172.477L105.474 172.998L105.568 197.998ZM307.5 185.495V318.457H332.5V185.495H307.5ZM353.432 252.727C342.501 235.327 335.56 213.15 334.096 184.814L309.129 186.104C310.772 217.894 318.667 244.385 332.263 266.026L353.432 252.727ZM343.473 301.397C346.826 292.801 350.752 282.036 355.32 268.689L331.667 260.594C327.181 273.702 323.376 284.124 320.182 292.313L343.473 301.397ZM333.098 324.959C335.817 319.909 339.229 312.278 343.473 301.397L320.182 292.313C316.076 302.839 313.094 309.377 311.086 313.106L333.098 324.959ZM312.512 191.919C314.34 215.212 319.695 235.431 328.309 252.82L350.711 241.723C343.717 227.605 339.053 210.569 337.436 189.963L312.512 191.919ZM360.827 172.038L330.806 172.151L330.9 197.151L360.921 197.038L360.827 172.038ZM361.513 250.195C366.531 234.906 372.202 216.941 378.592 195.902L354.671 188.637C348.326 209.531 342.71 227.315 337.759 242.399L361.513 250.195ZM383.13 180.91C399.643 126.997 414.8 93.2348 429.51 73.2445L409.374 58.4274C392.067 81.9469 375.928 119.06 359.226 173.588L383.13 180.91ZM330.322 194.153L365.492 194.021L365.398 169.021L330.228 169.153L330.322 194.153ZM369.357 61.8806C337.126 84.9535 311.92 121.462 311.856 175.83L336.856 175.859C336.909 130.532 357.381 101.199 383.909 82.2088L369.357 61.8806ZM407.104 41.4774C394.261 46.5996 381.355 53.2913 369.357 61.8806L383.909 82.2088C394.026 74.9668 405.098 69.1923 416.365 64.6987L407.104 41.4774ZM267.145 194.391L311.07 194.225L310.976 169.226L267.051 169.391L267.145 194.391ZM294.391 69.9572C282 96.2543 265.21 132.779 250.04 168.74L273.074 178.457C288.058 142.939 304.688 106.756 317.006 80.6134L294.391 69.9572ZM329.5 175.726V77.8411H304.5V175.726H329.5ZM452.191 55.9291C454.307 54.797 456.398 53.9386 458.48 53.3102L451.254 29.3772C447.554 30.4941 443.937 31.9926 440.399 33.8849L452.191 55.9291ZM431.926 75.0226C439.251 65.068 446.021 59.2297 452.191 55.9291L440.399 33.8849C430.068 39.411 420.648 48.1683 411.79 60.2055L431.926 75.0226ZM387.331 177.472C403.306 126.139 417.925 94.0494 431.926 75.0226L411.79 60.2055C395.244 82.6913 379.64 118.051 363.46 170.043L387.331 177.472ZM536.954 169H381.104V194H536.954V169ZM567.719 155.246C557.521 164.724 544.56 168.508 536.186 169.024L537.722 193.976C550.784 193.172 569.569 187.657 584.739 173.557L567.719 155.246ZM584.031 104.931C585.775 131.086 577.375 146.27 567.719 155.246L584.739 173.557C600.366 159.032 611.177 136.29 608.976 103.268L584.031 104.931ZM543.869 60.5426C567.302 69.0055 582.56 82.8674 584.031 104.931L608.976 103.268C606.56 67.0338 580.306 47.1212 552.361 37.0291L543.869 60.5426ZM473.038 51.9614C491.96 50.554 520.342 52.0454 543.869 60.5426L552.361 37.0291C524.493 26.9643 492.329 25.4575 471.184 27.0303L473.038 51.9614ZM473.026 51.9624L473.039 51.9614L471.183 27.0304L471.17 27.0314L473.026 51.9624ZM472.783 51.9781L472.797 51.9773L471.398 27.0165L471.385 27.0172L472.783 51.9781ZM456.784 53.6957C462.497 52.8089 467.88 52.2529 472.784 51.9781L471.384 27.0172C465.635 27.3395 459.438 27.9843 452.949 28.9916L456.784 53.6957ZM346.268 302.487C349.675 293.753 353.666 282.803 358.312 269.213L334.656 261.126C330.092 274.475 326.223 285.079 322.977 293.403L346.268 302.487ZM335.739 326.381C338.544 321.173 342.007 313.411 346.268 302.487L322.977 293.403C318.855 303.972 315.821 310.641 313.727 314.529L335.739 326.381ZM405.744 312H327.025V337H405.744V312ZM336.526 272.392C353.101 295.644 376.086 311.771 402.978 322.61L412.324 299.423C388.874 289.97 370.134 276.47 356.883 257.88L336.526 272.392ZM267.051 169.391C271.669 169.373 274.913 174.098 273.074 178.457L250.04 168.74C244.867 181.003 253.95 194.44 267.145 194.391L267.051 169.391ZM416.365 64.6987C413.549 65.8218 410.959 65.1052 409.609 64.3389C409.008 63.9981 408.653 63.6647 408.487 63.4894C408.313 63.3071 408.237 63.1837 408.212 63.1413C408.205 63.1286 408.089 62.9654 408.05 62.46C408.013 61.9735 408.012 60.2785 409.374 58.4274L429.51 73.2445C432.644 68.9859 433.259 64.2167 432.977 60.5425C432.692 56.8494 431.47 53.3849 429.787 50.5103C428.135 47.6887 425.577 44.6564 421.951 42.598C418.082 40.4014 412.697 39.247 407.104 41.4774L416.365 64.6987ZM359.226 173.588C360.042 170.924 362.508 169.032 365.398 169.021L365.492 194.021C373.658 193.99 380.769 188.618 383.13 180.91L359.226 173.588ZM360.921 197.038C356.553 197.054 353.396 192.838 354.671 188.637L378.592 195.902C382.212 183.986 373.258 171.991 360.827 172.038L360.921 197.038ZM328.309 252.82C336.102 268.554 356.868 264.346 361.513 250.195L337.759 242.399C338.57 239.93 340.884 238.116 343.554 237.843C346.361 237.557 349.376 239.028 350.711 241.723L328.309 252.82ZM337.436 189.963C337.756 194.043 334.506 197.137 330.9 197.151L330.806 172.151C320.36 172.19 311.657 181.02 312.512 191.919L337.436 189.963ZM332.263 266.026C331.34 264.556 330.99 262.572 331.667 260.594L355.32 268.689C357.201 263.193 356.332 257.344 353.432 252.727L332.263 266.026ZM320.85 197.189C314.516 197.212 309.446 192.241 309.129 186.104L334.096 184.814C333.734 177.816 327.952 172.162 320.756 172.189L320.85 197.189ZM332.5 185.495C332.5 191.936 327.291 197.164 320.85 197.189L320.756 172.189C313.427 172.216 307.5 178.165 307.5 185.495H332.5ZM311.086 313.106C313.6 308.438 319.081 306.156 324.185 307.58C329.128 308.959 332.5 313.457 332.5 318.457H307.5C307.5 324.698 311.624 330.03 317.466 331.66C323.468 333.335 329.996 330.72 333.098 324.959L311.086 313.106ZM260.593 198.994C266.706 186.574 257.473 172.427 243.972 172.477L244.066 197.477C239.352 197.495 235.931 192.49 238.163 187.954L260.593 198.994ZM93.021 185.657C92.9371 179.007 98.2068 173.096 105.352 173.001L105.686 197.999C112.832 197.903 118.103 191.992 118.019 185.341L93.021 185.657ZM320.763 194.189C328.386 194.16 334.131 187.814 333.922 180.585L308.933 181.306C308.747 174.88 313.85 169.215 320.669 169.189L320.763 194.189ZM405.744 337C412.138 337 416.613 333.404 419.057 330.084C421.399 326.9 422.516 323.287 422.939 320.206C423.366 317.094 423.237 313.435 422.004 309.874C420.766 306.301 417.936 301.684 412.324 299.423L402.978 322.61C399.842 321.346 398.677 318.913 398.38 318.056C398.216 317.58 398.177 317.252 398.166 317.111C398.155 316.96 398.163 316.867 398.171 316.807C398.179 316.748 398.201 316.62 398.278 316.413C398.35 316.219 398.528 315.8 398.923 315.264C399.735 314.16 402.019 312 405.744 312V337ZM312.795 56.1255C314.66 57.0301 316.707 57.5 318.78 57.5V32.5C320.485 32.5 322.167 32.8864 323.701 33.6301L312.795 56.1255ZM313.727 314.529C308.756 323.761 314.63 337 327.025 337V312C331.21 312 334.264 314.48 335.694 317.043C337.093 319.549 337.514 323.085 335.739 326.381L313.727 314.529ZM327.882 50.8638C324.988 56.8415 318.028 58.6628 312.795 56.1255L323.701 33.6301C317.256 30.5049 308.862 32.7784 305.381 39.9689L327.882 50.8638ZM250.873 194.452C258.327 194.424 265.02 189.93 267.884 183.071L244.814 173.438C245.815 171.041 248.16 169.462 250.779 169.452L250.873 194.452ZM358.312 269.213C355.124 278.538 342.494 280.782 336.519 272.382L356.89 257.891C350.797 249.325 337.909 251.609 334.656 261.126L358.312 269.213ZM117.494 182.46C117.519 189.397 111.909 194.974 105.046 195L104.952 170C98.0839 170.026 92.4699 175.607 92.4945 182.549L117.494 182.46ZM105.262 195.006C112.302 194.853 117.518 189.051 117.494 182.46L92.4945 182.549C92.4712 175.962 97.6836 170.165 104.718 170.012L105.262 195.006ZM120.567 326.318C120.011 319.489 114.012 314.106 106.849 314.729L109.017 339.635C102.034 340.243 96.1908 334.994 95.6496 328.346L120.567 326.318ZM107.224 315.027C114.728 314.392 120.072 320.232 120.567 326.318L95.6496 328.346C96.1596 334.612 101.648 340.588 109.332 339.938L107.224 315.027ZM363.46 170.043C359.751 181.961 368.682 194 381.104 194V169C385.476 169 388.648 173.24 387.331 177.472L363.46 170.043ZM317.75 313.4C324.239 313.4 329.5 318.66 329.5 325.15H304.5C304.5 332.467 310.432 338.4 317.75 338.4V313.4ZM331 326.65C331 319.332 325.068 313.4 317.75 313.4V338.4C311.261 338.4 306 333.139 306 326.65H331ZM319.3 315C325.762 315 331 320.238 331 326.7H306C306 334.045 311.955 340 319.3 340V315ZM118.019 185.341C118.107 192.287 112.514 197.972 105.568 197.998L105.474 172.998C98.5267 173.024 92.9334 178.71 93.021 185.657L118.019 185.341ZM317.006 80.6134C313.953 87.0928 304.5 84.6166 304.5 77.8411H329.5C329.5 58.306 302.883 51.9353 294.391 69.9572L317.006 80.6134ZM585.566 326.471C585.343 320.583 589.818 315.58 595.688 315.143L597.547 340.074C605.086 339.512 610.834 333.085 610.548 325.525L585.566 326.471ZM95.4307 325.456C95.9857 331.65 101.437 337.599 109.112 336.945L106.991 312.036C114.485 311.397 119.792 317.211 120.331 323.225L95.4307 325.456ZM260.548 172.415C253.232 172.443 246.808 176.778 243.826 183.109L266.442 193.764C265.449 195.871 263.287 197.405 260.642 197.415L260.548 172.415ZM307.5 180.976C307.5 188.293 313.446 194.216 320.763 194.189L320.669 169.189C327.196 169.165 332.5 174.449 332.5 180.976H307.5ZM330.228 169.153C333.646 169.14 336.861 171.913 336.856 175.859L311.856 175.83C311.844 186.264 320.416 194.19 330.322 194.153L330.228 169.153ZM336.69 255.13C334.972 260.233 335.673 266.027 338.969 270.651L359.326 256.139C360.852 258.28 361.128 260.893 360.383 263.108L336.69 255.13ZM311.07 194.225C321.26 194.187 329.5 185.916 329.5 175.726H304.5C304.5 172.145 307.395 169.239 310.976 169.226L311.07 194.225ZM596.501 337C590.618 337 585.788 332.349 585.566 326.471L610.548 325.525C610.262 317.974 604.057 312 596.501 312V337ZM108.793 336.643C101.856 337.25 96.0233 332.07 95.4307 325.456L120.331 323.225C119.722 316.43 113.733 311.116 106.615 311.738L108.793 336.643ZM329.5 190.726C329.5 180.481 321.175 172.187 310.93 172.226L311.024 197.226C307.425 197.239 304.5 194.325 304.5 190.726H329.5ZM318.78 57.5C312.55 57.5 307.5 52.4498 307.5 46.2199H332.5C332.5 38.6425 326.357 32.5 318.78 32.5V57.5ZM376.575 172C368.396 172 361.215 177.369 358.861 185.157L382.791 192.392C381.968 195.112 379.459 197 376.575 197V172Z" fill="black"/>
<path d="M845.4 143.1V213H921.6V235.5H845.4V307.5H930.6V330H818.1V120.6H930.6V143.1H845.4ZM1169.61 162.6C1182.41 162.6 1193.81 165.3 1203.81 170.7C1213.81 175.9 1221.71 183.8 1227.51 194.4C1233.31 205 1236.21 217.9 1236.21 233.1V330H1209.21V237C1209.21 220.6 1205.11 208.1 1196.91 199.5C1188.91 190.7 1178.01 186.3 1164.21 186.3C1150.01 186.3 1138.71 190.9 1130.31 200.1C1121.91 209.1 1117.71 222.2 1117.71 239.4V330H1090.71V237C1090.71 220.6 1086.61 208.1 1078.41 199.5C1070.41 190.7 1059.51 186.3 1045.71 186.3C1031.51 186.3 1020.21 190.9 1011.81 200.1C1003.41 209.1 999.209 222.2 999.209 239.4V330H971.909V165.6H999.209V189.3C1004.61 180.7 1011.81 174.1 1020.81 169.5C1030.01 164.9 1040.11 162.6 1051.11 162.6C1064.91 162.6 1077.11 165.7 1087.71 171.9C1098.31 178.1 1106.21 187.2 1111.41 199.2C1116.01 187.6 1123.61 178.6 1134.21 172.2C1144.81 165.8 1156.61 162.6 1169.61 162.6ZM1270.79 247.2C1270.79 230.4 1274.19 215.7 1280.99 203.1C1287.79 190.3 1297.09 180.4 1308.89 173.4C1320.89 166.4 1334.19 162.9 1348.79 162.9C1363.19 162.9 1375.69 166 1386.29 172.2C1396.89 178.4 1404.79 186.2 1409.99 195.6V165.6H1437.59V330H1409.99V299.4C1404.59 309 1396.49 317 1385.69 323.4C1375.09 329.6 1362.69 332.7 1348.49 332.7C1333.89 332.7 1320.69 329.1 1308.89 321.9C1297.09 314.7 1287.79 304.6 1280.99 291.6C1274.19 278.6 1270.79 263.8 1270.79 247.2ZM1409.99 247.5C1409.99 235.1 1407.49 224.3 1402.49 215.1C1397.49 205.9 1390.69 198.9 1382.09 194.1C1373.69 189.1 1364.39 186.6 1354.19 186.6C1343.99 186.6 1334.69 189 1326.29 193.8C1317.89 198.6 1311.19 205.6 1306.19 214.8C1301.19 224 1298.69 234.8 1298.69 247.2C1298.69 259.8 1301.19 270.8 1306.19 280.2C1311.19 289.4 1317.89 296.5 1326.29 301.5C1334.69 306.3 1343.99 308.7 1354.19 308.7C1364.39 308.7 1373.69 306.3 1382.09 301.5C1390.69 296.5 1397.49 289.4 1402.49 280.2C1407.49 270.8 1409.99 259.9 1409.99 247.5ZM1563.83 162.6C1583.83 162.6 1600.03 168.7 1612.43 180.9C1624.83 192.9 1631.03 210.3 1631.03 233.1V330H1604.03V237C1604.03 220.6 1599.93 208.1 1591.73 199.5C1583.53 190.7 1572.33 186.3 1558.13 186.3C1543.73 186.3 1532.23 190.8 1523.63 199.8C1515.23 208.8 1511.03 221.9 1511.03 239.1V330H1483.73V165.6H1511.03V189C1516.43 180.6 1523.73 174.1 1532.93 169.5C1542.33 164.9 1552.63 162.6 1563.83 162.6ZM1821.42 165.6V330H1794.12V305.7C1788.92 314.1 1781.62 320.7 1772.22 325.5C1763.02 330.1 1752.82 332.4 1741.62 332.4C1728.82 332.4 1717.32 329.8 1707.12 324.6C1696.92 319.2 1688.82 311.2 1682.82 300.6C1677.02 290 1674.12 277.1 1674.12 261.9V165.6H1701.12V258.3C1701.12 274.5 1705.22 287 1713.42 295.8C1721.62 304.4 1732.82 308.7 1747.02 308.7C1761.62 308.7 1773.12 304.2 1781.52 295.2C1789.92 286.2 1794.12 273.1 1794.12 255.9V165.6H1821.42ZM2017.51 241.5C2017.51 246.7 2017.21 252.2 2016.61 258H1885.21C1886.21 274.2 1891.71 286.9 1901.71 296.1C1911.91 305.1 1924.21 309.6 1938.61 309.6C1950.41 309.6 1960.21 306.9 1968.01 301.5C1976.01 295.9 1981.61 288.5 1984.81 279.3H2014.21C2009.81 295.1 2001.01 308 1987.81 318C1974.61 327.8 1958.21 332.7 1938.61 332.7C1923.01 332.7 1909.01 329.2 1896.61 322.2C1884.41 315.2 1874.81 305.3 1867.81 292.5C1860.81 279.5 1857.31 264.5 1857.31 247.5C1857.31 230.5 1860.71 215.6 1867.51 202.8C1874.31 190 1883.81 180.2 1896.01 173.4C1908.41 166.4 1922.61 162.9 1938.61 162.9C1954.21 162.9 1968.01 166.3 1980.01 173.1C1992.01 179.9 2001.21 189.3 2007.61 201.3C2014.21 213.1 2017.51 226.5 2017.51 241.5ZM1989.31 235.8C1989.31 225.4 1987.01 216.5 1982.41 209.1C1977.81 201.5 1971.51 195.8 1963.51 192C1955.71 188 1947.01 186 1937.41 186C1923.61 186 1911.81 190.4 1902.01 199.2C1892.41 208 1886.91 220.2 1885.51 235.8H1989.31ZM2080.85 108V330H2053.55V108H2080.85Z" fill="black"/>
</g>
<defs>
<clipPath id="clip0">
<rect width="2114" height="382" fill="white"/>
</clipPath>
</defs>
</svg>
